<svg xmlns="http://www.w3.org/2000/svg" xmlns:xlink="http://www.w3.org/1999/xlink" width="80" zoomAndPan="magnify" viewBox="0 0 60 60" height="80" preserveAspectRatio="xMidYMid meet" version="1.0"><defs><g/><clipPath id="2bb5994716"><path d="M 2.386719 3 L 57 3 L 57 57 L 2.386719 57 Z M 2.386719 3 " clip-rule="nonzero"/></clipPath><clipPath id="757ce0838c"><path d="M 48 6 L 57.886719 6 L 57.886719 22 L 48 22 Z M 48 6 " clip-rule="nonzero"/></clipPath></defs><g clip-path="url(#2bb5994716)"><path fill="#000000" d="M 36.039062 4.199219 C 30.480469 2.679688 24.578125 3.597656 19.410156 5.964844 C 14.246094 8.332031 9.761719 12.222656 6.824219 17.066406 C 3.921875 21.847656 2.402344 27.628906 2.972656 33.210938 C 3.46875 38.074219 5.425781 42.582031 8.453125 46.410156 C 11.398438 50.132812 15.34375 53.011719 19.726562 54.832031 C 24.175781 56.679688 29.082031 57.273438 33.835938 56.472656 C 39.035156 55.597656 43.875 52.933594 47.695312 49.355469 C 51.710938 45.601562 54.851562 40.570312 55.949219 35.164062 C 56.277344 33.5625 56.4375 31.921875 56.433594 30.289062 C 56.367188 24.191406 54 18.359375 50.164062 13.648438 C 46.558594 9.214844 41.59375 5.714844 36.035156 4.195312 Z M 26.671875 53.992188 C 26.601562 53.984375 26.476562 53.96875 26.671875 53.992188 Z M 53.398438 26.464844 C 53.640625 27.714844 53.753906 28.949219 53.769531 30.292969 C 53.773438 31.785156 53.644531 33.265625 53.324219 34.726562 C 53.164062 35.464844 52.964844 36.199219 52.726562 36.917969 C 52.605469 37.285156 52.472656 37.648438 52.335938 38.007812 C 52.21875 38.320312 52.152344 38.480469 52.0625 38.679688 C 51.570312 39.800781 51 40.886719 50.363281 41.925781 C 49.714844 42.976562 49 43.984375 48.300781 44.835938 C 47.511719 45.789062 46.667969 46.6875 45.761719 47.527344 C 44.828125 48.402344 43.957031 49.105469 42.988281 49.789062 C 40.945312 51.210938 38.796875 52.320312 36.550781 53.0625 C 35.433594 53.433594 34.296875 53.71875 33.140625 53.914062 C 32.988281 53.941406 32.835938 53.960938 32.6875 53.984375 C 32.636719 53.992188 32.613281 53.996094 32.601562 54 C 32.585938 54 32.566406 54.003906 32.523438 54.007812 C 32.242188 54.042969 31.960938 54.074219 31.679688 54.097656 C 31.121094 54.148438 30.558594 54.175781 29.996094 54.183594 C 28.898438 54.199219 27.808594 54.132812 26.714844 54 C 26.707031 54 26.699219 54 26.683594 53.996094 C 26.621094 53.988281 26.558594 53.976562 26.496094 53.96875 C 26.367188 53.953125 26.246094 53.933594 26.117188 53.914062 C 25.84375 53.867188 25.566406 53.816406 25.292969 53.761719 C 24.746094 53.652344 24.207031 53.523438 23.667969 53.378906 C 22.617188 53.089844 21.582031 52.738281 20.574219 52.324219 C 20.503906 52.292969 20.429688 52.261719 20.359375 52.230469 C 20.242188 52.179688 20.125 52.125 20.007812 52.074219 C 19.753906 51.957031 19.503906 51.835938 19.253906 51.714844 C 18.753906 51.46875 18.261719 51.207031 17.777344 50.929688 C 16.832031 50.386719 15.914062 49.789062 15.042969 49.132812 C 14.992188 49.09375 14.941406 49.054688 14.890625 49.015625 C 14.882812 49.011719 14.882812 49.011719 14.878906 49.007812 C 14.871094 49.003906 14.867188 49 14.855469 48.988281 C 14.753906 48.910156 14.652344 48.832031 14.554688 48.75 C 14.335938 48.574219 14.125 48.398438 13.914062 48.21875 C 13.492188 47.859375 13.078125 47.480469 12.679688 47.09375 C 11.898438 46.335938 11.160156 45.53125 10.480469 44.683594 C 10.449219 44.648438 10.304688 44.457031 10.296875 44.453125 C 10.230469 44.367188 10.164062 44.277344 10.097656 44.195312 C 9.933594 43.972656 9.769531 43.746094 9.609375 43.519531 C 9.292969 43.0625 8.992188 42.597656 8.707031 42.125 C 8.152344 41.207031 7.660156 40.25 7.234375 39.265625 C 7.214844 39.21875 7.167969 39.101562 7.15625 39.066406 C 7.101562 38.925781 7.046875 38.785156 6.992188 38.648438 C 6.890625 38.386719 6.796875 38.125 6.707031 37.859375 C 6.527344 37.332031 6.363281 36.796875 6.222656 36.257812 C 6.078125 35.714844 5.957031 35.164062 5.855469 34.609375 C 5.808594 34.355469 5.765625 34.09375 5.726562 33.839844 C 5.71875 33.792969 5.714844 33.769531 5.714844 33.757812 C 5.714844 33.746094 5.714844 33.722656 5.707031 33.671875 C 5.6875 33.523438 5.671875 33.367188 5.65625 33.214844 C 5.535156 32.019531 5.511719 30.808594 5.582031 29.609375 C 5.730469 27.054688 6.347656 24.4375 7.34375 21.960938 C 9.257812 17.199219 12.8125 13.0625 17.128906 10.265625 C 21.476562 7.445312 26.515625 5.8125 31.691406 6.144531 C 34.105469 6.296875 36.746094 7.046875 38.96875 8.097656 C 41.390625 9.25 43.53125 10.722656 45.453125 12.503906 C 49.492188 16.238281 52.378906 21.070312 53.410156 26.464844 Z M 53.398438 26.464844 " fill-opacity="1" fill-rule="nonzero"/></g><path fill="#000000" d="M 45.226562 19.414062 C 44.96875 19.597656 44.722656 19.8125 44.585938 20.105469 C 44.519531 20.242188 44.449219 20.386719 44.425781 20.542969 C 44.378906 20.824219 44.363281 21.015625 44.4375 21.300781 C 44.476562 21.464844 44.546875 21.628906 44.644531 21.765625 C 44.714844 21.867188 44.789062 21.96875 44.875 22.054688 C 44.960938 22.144531 45.078125 22.226562 45.171875 22.292969 C 45.519531 22.539062 45.988281 22.589844 46.398438 22.492188 C 46.777344 22.40625 47.136719 22.109375 47.320312 21.769531 C 47.460938 21.515625 47.53125 21.226562 47.523438 20.9375 C 47.5625 20.863281 47.597656 20.78125 47.628906 20.691406 C 47.8125 20.152344 47.496094 19.582031 47.019531 19.316406 C 46.753906 19.175781 46.429688 19.089844 46.125 19.117188 C 45.804688 19.148438 45.492188 19.21875 45.226562 19.410156 Z M 45.226562 19.414062 " fill-opacity="1" fill-rule="nonzero"/><path fill="#000000" d="M 46.566406 37.453125 C 46.300781 37.308594 45.976562 37.226562 45.671875 37.253906 C 45.355469 37.285156 45.042969 37.355469 44.773438 37.546875 C 44.515625 37.730469 44.269531 37.945312 44.132812 38.234375 C 44.066406 38.375 43.996094 38.519531 43.972656 38.675781 C 43.925781 38.957031 43.910156 39.144531 43.984375 39.433594 C 44.023438 39.597656 44.09375 39.761719 44.191406 39.898438 C 44.261719 40 44.335938 40.097656 44.421875 40.1875 C 44.507812 40.277344 44.625 40.359375 44.71875 40.425781 C 45.070312 40.671875 45.535156 40.722656 45.945312 40.625 C 46.324219 40.535156 46.6875 40.242188 46.871094 39.902344 C 47.011719 39.644531 47.082031 39.359375 47.074219 39.070312 C 47.109375 38.996094 47.144531 38.914062 47.175781 38.824219 C 47.359375 38.285156 47.046875 37.714844 46.566406 37.449219 Z M 46.566406 37.453125 " fill-opacity="1" fill-rule="nonzero"/><path fill="#000000" d="M 30.269531 47.230469 C 30.003906 47.085938 29.683594 47.003906 29.378906 47.027344 C 29.058594 47.058594 28.746094 47.132812 28.476562 47.324219 C 28.21875 47.503906 27.976562 47.722656 27.839844 48.011719 C 27.773438 48.152344 27.703125 48.296875 27.679688 48.449219 C 27.632812 48.734375 27.617188 48.921875 27.691406 49.210938 C 27.730469 49.371094 27.800781 49.539062 27.898438 49.675781 C 27.96875 49.777344 28.039062 49.875 28.125 49.964844 C 28.210938 50.054688 28.328125 50.136719 28.421875 50.203125 C 28.773438 50.449219 29.242188 50.5 29.652344 50.402344 C 30.027344 50.3125 30.390625 50.019531 30.574219 49.679688 C 30.714844 49.421875 30.785156 49.136719 30.777344 48.847656 C 30.816406 48.773438 30.851562 48.691406 30.882812 48.601562 C 31.066406 48.0625 30.75 47.488281 30.269531 47.226562 Z M 30.269531 47.230469 " fill-opacity="1" fill-rule="nonzero"/><path fill="#000000" d="M 48.175781 31.375 C 48.175781 31.375 48.144531 31.359375 48.128906 31.351562 C 48.105469 31.34375 48.082031 31.335938 48.058594 31.324219 C 48.097656 31.339844 48.136719 31.355469 48.175781 31.375 Z M 48.175781 31.375 " fill-opacity="1" fill-rule="nonzero"/><path fill="#000000" d="M 48.199219 31.382812 C 48.199219 31.382812 48.183594 31.378906 48.179688 31.375 C 48.179688 31.375 48.183594 31.375 48.1875 31.375 C 48.191406 31.375 48.195312 31.375 48.199219 31.378906 Z M 48.199219 31.382812 " fill-opacity="1" fill-rule="nonzero"/><path fill="#000000" d="M 46.640625 29.664062 C 46.640625 29.957031 46.714844 30.191406 46.84375 30.449219 C 46.960938 30.695312 47.15625 30.871094 47.378906 31.019531 C 47.550781 31.136719 47.746094 31.203125 47.949219 31.230469 C 48 31.277344 48.0625 31.316406 48.128906 31.347656 C 48.417969 31.472656 48.761719 31.476562 49.023438 31.296875 C 49.214844 31.171875 49.375 31.015625 49.523438 30.847656 C 49.828125 30.628906 50.054688 30.335938 50.171875 29.972656 C 50.21875 29.828125 50.242188 29.664062 50.234375 29.507812 C 50.214844 29.21875 50.171875 29.078125 50.054688 28.820312 C 49.929688 28.546875 49.703125 28.351562 49.460938 28.183594 C 49.28125 28.058594 49.0625 27.972656 48.847656 27.933594 C 48.53125 27.878906 48.238281 27.859375 47.917969 27.953125 C 47.628906 28.035156 47.332031 28.195312 47.132812 28.425781 C 46.832031 28.769531 46.636719 29.199219 46.644531 29.664062 Z M 46.640625 29.664062 " fill-opacity="1" fill-rule="nonzero"/><path fill="#000000" d="M 39.113281 46.667969 C 39.113281 46.667969 39.097656 46.664062 39.09375 46.660156 C 39.09375 46.660156 39.097656 46.660156 39.101562 46.660156 C 39.105469 46.660156 39.109375 46.660156 39.113281 46.664062 Z M 39.113281 46.667969 " fill-opacity="1" fill-rule="nonzero"/><path fill="#000000" d="M 40.375 43.472656 C 40.195312 43.347656 39.980469 43.261719 39.765625 43.222656 C 39.445312 43.167969 39.152344 43.148438 38.832031 43.242188 C 38.542969 43.324219 38.25 43.484375 38.050781 43.714844 C 37.746094 44.058594 37.550781 44.488281 37.558594 44.953125 C 37.558594 45.246094 37.632812 45.480469 37.761719 45.738281 C 37.878906 45.984375 38.078125 46.160156 38.300781 46.308594 C 38.46875 46.425781 38.664062 46.492188 38.867188 46.519531 C 38.917969 46.566406 38.980469 46.605469 39.046875 46.636719 C 39.335938 46.761719 39.679688 46.765625 39.945312 46.585938 C 40.136719 46.460938 40.292969 46.304688 40.441406 46.136719 C 40.746094 45.917969 40.972656 45.628906 41.089844 45.261719 C 41.136719 45.117188 41.160156 44.953125 41.152344 44.796875 C 41.132812 44.507812 41.089844 44.367188 40.972656 44.109375 C 40.847656 43.835938 40.621094 43.640625 40.378906 43.472656 Z M 40.375 43.472656 " fill-opacity="1" fill-rule="nonzero"/><path fill="#000000" d="M 39.09375 46.660156 C 39.09375 46.660156 39.0625 46.644531 39.046875 46.636719 C 39.023438 46.628906 39 46.621094 38.976562 46.609375 C 39.015625 46.625 39.054688 46.640625 39.09375 46.660156 Z M 39.09375 46.660156 " fill-opacity="1" fill-rule="nonzero"/><path fill="#000000" d="M 20.445312 48.375 C 20.445312 48.375 20.429688 48.371094 20.425781 48.367188 C 20.425781 48.367188 20.429688 48.367188 20.433594 48.367188 C 20.4375 48.367188 20.441406 48.367188 20.445312 48.371094 Z M 20.445312 48.375 " fill-opacity="1" fill-rule="nonzero"/><path fill="#000000" d="M 21.707031 45.175781 C 21.527344 45.054688 21.308594 44.964844 21.09375 44.925781 C 20.777344 44.871094 20.484375 44.851562 20.164062 44.945312 C 19.875 45.03125 19.578125 45.1875 19.378906 45.417969 C 19.078125 45.761719 18.882812 46.191406 18.890625 46.65625 C 18.890625 46.953125 18.964844 47.183594 19.09375 47.445312 C 19.210938 47.6875 19.40625 47.867188 19.628906 48.011719 C 19.800781 48.128906 19.996094 48.195312 20.199219 48.222656 C 20.25 48.273438 20.3125 48.3125 20.378906 48.34375 C 20.667969 48.464844 21.011719 48.46875 21.273438 48.292969 C 21.464844 48.164062 21.625 48.007812 21.773438 47.84375 C 22.078125 47.621094 22.304688 47.332031 22.421875 46.96875 C 22.46875 46.820312 22.492188 46.65625 22.484375 46.503906 C 22.464844 46.210938 22.421875 46.074219 22.304688 45.8125 C 22.179688 45.542969 21.953125 45.34375 21.710938 45.175781 Z M 21.707031 45.175781 " fill-opacity="1" fill-rule="nonzero"/><path fill="#000000" d="M 20.421875 48.367188 C 20.421875 48.367188 20.390625 48.351562 20.375 48.34375 C 20.351562 48.335938 20.328125 48.328125 20.304688 48.316406 C 20.34375 48.332031 20.382812 48.347656 20.421875 48.367188 Z M 20.421875 48.367188 " fill-opacity="1" fill-rule="nonzero"/><path fill="#000000" d="M 11.488281 31.378906 C 11.488281 31.378906 11.496094 31.378906 11.5 31.382812 C 11.492188 31.382812 11.484375 31.378906 11.480469 31.375 C 11.480469 31.375 11.484375 31.375 11.488281 31.375 Z M 11.488281 31.378906 " fill-opacity="1" fill-rule="nonzero"/><path fill="#000000" d="M 11.363281 31.324219 C 11.402344 31.339844 11.441406 31.355469 11.480469 31.375 C 11.460938 31.367188 11.449219 31.359375 11.433594 31.351562 C 11.410156 31.34375 11.386719 31.335938 11.363281 31.324219 Z M 11.363281 31.324219 " fill-opacity="1" fill-rule="nonzero"/><path fill="#000000" d="M 12.332031 31.300781 C 12.519531 31.175781 12.679688 31.019531 12.828125 30.851562 C 13.132812 30.632812 13.359375 30.339844 13.476562 29.976562 C 13.523438 29.832031 13.546875 29.667969 13.539062 29.511719 C 13.519531 29.222656 13.476562 29.082031 13.359375 28.824219 C 13.234375 28.550781 13.007812 28.355469 12.765625 28.1875 C 12.585938 28.0625 12.371094 27.976562 12.15625 27.9375 C 11.835938 27.882812 11.542969 27.863281 11.222656 27.957031 C 10.933594 28.039062 10.640625 28.199219 10.441406 28.429688 C 10.136719 28.773438 9.941406 29.203125 9.949219 29.667969 C 9.949219 29.960938 10.023438 30.195312 10.152344 30.453125 C 10.269531 30.699219 10.46875 30.875 10.6875 31.023438 C 10.859375 31.140625 11.054688 31.207031 11.257812 31.234375 C 11.308594 31.28125 11.371094 31.320312 11.4375 31.351562 C 11.726562 31.476562 12.070312 31.480469 12.335938 31.300781 Z M 12.332031 31.300781 " fill-opacity="1" fill-rule="nonzero"/><path fill="#000000" d="M 13.078125 41.082031 C 13.078125 41.082031 13.046875 41.066406 13.03125 41.058594 C 13.007812 41.050781 12.984375 41.042969 12.960938 41.03125 C 13 41.046875 13.039062 41.0625 13.078125 41.082031 Z M 13.078125 41.082031 " fill-opacity="1" fill-rule="nonzero"/><path fill="#000000" d="M 14.359375 37.898438 C 14.179688 37.773438 13.964844 37.6875 13.75 37.648438 C 13.429688 37.59375 13.136719 37.574219 12.816406 37.667969 C 12.527344 37.75 12.234375 37.910156 12.035156 38.140625 C 11.730469 38.484375 11.535156 38.914062 11.542969 39.378906 C 11.542969 39.671875 11.617188 39.90625 11.746094 40.164062 C 11.863281 40.410156 12.0625 40.585938 12.285156 40.734375 C 12.453125 40.851562 12.648438 40.917969 12.851562 40.945312 C 12.902344 40.992188 12.964844 41.03125 13.03125 41.0625 C 13.320312 41.1875 13.664062 41.191406 13.929688 41.011719 C 14.121094 40.886719 14.277344 40.730469 14.425781 40.5625 C 14.730469 40.34375 14.957031 40.054688 15.074219 39.6875 C 15.121094 39.542969 15.144531 39.378906 15.136719 39.222656 C 15.117188 38.933594 15.074219 38.792969 14.957031 38.535156 C 14.832031 38.261719 14.605469 38.066406 14.363281 37.898438 Z M 14.359375 37.898438 " fill-opacity="1" fill-rule="nonzero"/><path fill="#000000" d="M 13.097656 41.09375 C 13.097656 41.09375 13.082031 41.089844 13.078125 41.085938 C 13.078125 41.085938 13.082031 41.085938 13.085938 41.085938 C 13.089844 41.085938 13.09375 41.085938 13.097656 41.089844 Z M 13.097656 41.09375 " fill-opacity="1" fill-rule="nonzero"/><path fill="#000000" d="M 23.34375 13.851562 C 23.324219 13.5625 23.28125 13.421875 23.164062 13.164062 C 23.039062 12.890625 22.8125 12.695312 22.574219 12.527344 C 22.394531 12.402344 22.175781 12.3125 21.960938 12.273438 C 21.640625 12.222656 21.347656 12.203125 21.03125 12.292969 C 20.742188 12.378906 20.445312 12.539062 20.246094 12.765625 C 19.941406 13.113281 19.746094 13.542969 19.753906 14.007812 C 19.753906 14.300781 19.828125 14.535156 19.957031 14.792969 C 20.074219 15.039062 20.273438 15.214844 20.496094 15.363281 C 20.667969 15.480469 20.863281 15.542969 21.066406 15.570312 C 21.113281 15.621094 21.175781 15.660156 21.242188 15.691406 C 21.53125 15.816406 21.875 15.820312 22.140625 15.640625 C 22.332031 15.511719 22.492188 15.359375 22.640625 15.191406 C 22.941406 14.972656 23.167969 14.679688 23.285156 14.316406 C 23.332031 14.167969 23.355469 14.007812 23.347656 13.851562 Z M 23.34375 13.851562 " fill-opacity="1" fill-rule="nonzero"/><path fill="#000000" d="M 21.308594 15.722656 C 21.308594 15.722656 21.292969 15.71875 21.289062 15.714844 C 21.289062 15.714844 21.292969 15.714844 21.296875 15.714844 C 21.300781 15.714844 21.304688 15.714844 21.308594 15.71875 Z M 21.308594 15.722656 " fill-opacity="1" fill-rule="nonzero"/><path fill="#000000" d="M 21.285156 15.714844 C 21.285156 15.714844 21.253906 15.699219 21.238281 15.691406 C 21.214844 15.683594 21.191406 15.675781 21.167969 15.664062 C 21.207031 15.679688 21.246094 15.695312 21.285156 15.714844 Z M 21.285156 15.714844 " fill-opacity="1" fill-rule="nonzero"/><path fill="#000000" d="M 38.410156 16.652344 C 38.410156 16.652344 38.394531 16.648438 38.390625 16.644531 C 38.390625 16.644531 38.394531 16.644531 38.398438 16.644531 C 38.402344 16.644531 38.40625 16.644531 38.410156 16.648438 Z M 38.410156 16.652344 " fill-opacity="1" fill-rule="nonzero"/><path fill="#000000" d="M 38.390625 16.644531 C 38.390625 16.644531 38.359375 16.628906 38.34375 16.621094 C 38.320312 16.613281 38.296875 16.605469 38.273438 16.59375 C 38.3125 16.609375 38.351562 16.625 38.390625 16.644531 Z M 38.390625 16.644531 " fill-opacity="1" fill-rule="nonzero"/><path fill="#000000" d="M 37.589844 16.292969 C 37.761719 16.410156 37.957031 16.472656 38.160156 16.5 C 38.210938 16.550781 38.273438 16.589844 38.339844 16.621094 C 38.625 16.746094 38.96875 16.75 39.234375 16.570312 C 39.425781 16.441406 39.585938 16.289062 39.734375 16.121094 C 40.039062 15.902344 40.261719 15.609375 40.378906 15.246094 C 40.425781 15.097656 40.449219 14.9375 40.441406 14.78125 C 40.421875 14.492188 40.378906 14.351562 40.261719 14.09375 C 40.140625 13.820312 39.914062 13.625 39.671875 13.457031 C 39.492188 13.332031 39.273438 13.242188 39.058594 13.203125 C 38.738281 13.152344 38.445312 13.132812 38.128906 13.222656 C 37.839844 13.308594 37.542969 13.46875 37.34375 13.695312 C 37.039062 14.042969 36.84375 14.472656 36.851562 14.9375 C 36.851562 15.230469 36.925781 15.464844 37.054688 15.722656 C 37.171875 15.96875 37.371094 16.144531 37.59375 16.292969 Z M 37.589844 16.292969 " fill-opacity="1" fill-rule="nonzero"/><path fill="#000000" d="M 15.820312 19.089844 C 15.640625 18.964844 15.421875 18.875 15.207031 18.835938 C 14.886719 18.78125 14.59375 18.761719 14.273438 18.855469 C 13.988281 18.941406 13.691406 19.101562 13.492188 19.328125 C 13.1875 19.675781 12.992188 20.105469 13 20.570312 C 13 20.863281 13.074219 21.09375 13.203125 21.355469 C 13.320312 21.597656 13.519531 21.777344 13.742188 21.925781 C 13.914062 22.039062 14.109375 22.105469 14.308594 22.132812 C 14.359375 22.183594 14.421875 22.222656 14.488281 22.253906 C 14.777344 22.378906 15.121094 22.382812 15.386719 22.203125 C 15.578125 22.074219 15.738281 21.921875 15.882812 21.753906 C 16.1875 21.53125 16.414062 21.242188 16.53125 20.878906 C 16.578125 20.730469 16.601562 20.570312 16.59375 20.414062 C 16.574219 20.125 16.53125 19.984375 16.414062 19.722656 C 16.289062 19.453125 16.0625 19.253906 15.824219 19.089844 Z M 15.820312 19.089844 " fill-opacity="1" fill-rule="nonzero"/><path fill="#000000" d="M 14.535156 22.277344 C 14.535156 22.277344 14.503906 22.261719 14.488281 22.253906 C 14.464844 22.246094 14.441406 22.238281 14.417969 22.226562 C 14.457031 22.242188 14.496094 22.257812 14.535156 22.277344 Z M 14.535156 22.277344 " fill-opacity="1" fill-rule="nonzero"/><path fill="#000000" d="M 14.554688 22.285156 C 14.554688 22.285156 14.539062 22.28125 14.535156 22.277344 C 14.535156 22.277344 14.539062 22.277344 14.542969 22.277344 C 14.546875 22.277344 14.550781 22.277344 14.554688 22.28125 Z M 14.554688 22.285156 " fill-opacity="1" fill-rule="nonzero"/><path fill="#000000" d="M 29.757812 13.859375 C 29.757812 13.859375 29.730469 13.84375 29.714844 13.835938 C 29.691406 13.828125 29.667969 13.820312 29.644531 13.808594 C 29.683594 13.824219 29.722656 13.839844 29.757812 13.859375 Z M 29.757812 13.859375 " fill-opacity="1" fill-rule="nonzero"/><path fill="#000000" d="M 29.777344 13.867188 C 29.777344 13.867188 29.761719 13.863281 29.757812 13.859375 C 29.757812 13.859375 29.761719 13.859375 29.765625 13.859375 C 29.769531 13.859375 29.773438 13.859375 29.777344 13.863281 Z M 29.777344 13.867188 " fill-opacity="1" fill-rule="nonzero"/><path fill="#000000" d="M 28.960938 13.503906 C 29.132812 13.621094 29.328125 13.683594 29.53125 13.710938 C 29.582031 13.761719 29.644531 13.800781 29.710938 13.832031 C 29.996094 13.957031 30.339844 13.960938 30.605469 13.78125 C 30.796875 13.65625 30.957031 13.5 31.105469 13.332031 C 31.410156 13.113281 31.632812 12.820312 31.75 12.457031 C 31.796875 12.308594 31.820312 12.148438 31.8125 11.992188 C 31.792969 11.703125 31.75 11.5625 31.632812 11.304688 C 31.507812 11.03125 31.285156 10.835938 31.042969 10.667969 C 30.863281 10.542969 30.644531 10.453125 30.429688 10.414062 C 30.109375 10.363281 29.816406 10.34375 29.5 10.433594 C 29.210938 10.519531 28.914062 10.679688 28.714844 10.90625 C 28.410156 11.253906 28.214844 11.683594 28.222656 12.148438 C 28.222656 12.441406 28.296875 12.675781 28.425781 12.933594 C 28.542969 13.179688 28.742188 13.355469 28.964844 13.503906 Z M 28.960938 13.503906 " fill-opacity="1" fill-rule="nonzero"/><path fill="#000000" d="M 38.207031 25.980469 C 37.890625 25.589844 37.289062 25.417969 36.835938 25.707031 C 35.214844 26.75 33.773438 28.117188 32.3125 29.371094 C 31.597656 29.976562 30.878906 30.582031 30.175781 31.207031 C 29.835938 31.507812 29.503906 31.808594 29.164062 32.113281 C 29.132812 32.140625 29.101562 32.167969 29.070312 32.195312 C 29.023438 32.050781 28.972656 31.910156 28.921875 31.777344 C 28.683594 31.179688 28.449219 30.582031 28.210938 29.980469 C 27.753906 28.8125 27.308594 27.632812 26.820312 26.480469 C 25.839844 24.144531 24.855469 21.824219 23.773438 19.535156 C 23.566406 19.097656 22.890625 19.410156 23.003906 19.855469 C 23.90625 23.429688 24.992188 26.945312 26.128906 30.453125 C 26.410156 31.335938 26.699219 32.222656 26.984375 33.109375 C 27.292969 34.0625 27.621094 35.386719 28.941406 35.171875 C 29.46875 35.085938 29.832031 34.726562 30.222656 34.398438 C 30.597656 34.082031 30.96875 33.773438 31.34375 33.460938 C 32.035156 32.878906 32.722656 32.285156 33.402344 31.691406 C 34.988281 30.300781 36.734375 28.964844 38.125 27.371094 C 38.464844 26.976562 38.546875 26.414062 38.207031 25.988281 Z M 28.175781 32.972656 C 28.175781 32.972656 28.210938 32.964844 28.230469 32.957031 C 28.148438 33.042969 28.128906 33.050781 28.175781 32.972656 Z M 28.175781 32.972656 " fill-opacity="1" fill-rule="nonzero"/><g clip-path="url(#757ce0838c)"><path fill="#000000" d="M 56.800781 16.832031 C 56.214844 15.566406 55.507812 14.371094 54.699219 13.234375 C 53.019531 10.878906 51.019531 8.832031 48.914062 6.847656 C 48.605469 6.558594 48.199219 6.988281 48.457031 7.304688 C 50.191406 9.453125 51.878906 11.679688 53.300781 14.050781 C 53.976562 15.171875 54.605469 16.332031 55.121094 17.535156 C 55.394531 18.171875 55.617188 18.824219 55.84375 19.476562 C 56.078125 20.144531 56.378906 20.773438 56.667969 21.417969 C 56.945312 22.035156 57.894531 21.691406 57.894531 21.085938 C 57.894531 19.550781 57.441406 18.222656 56.796875 16.835938 Z M 56.800781 16.832031 " fill-opacity="1" fill-rule="nonzero"/></g><g fill="#000000" fill-opacity="1"><g transform="translate(53.999998, 31.500001)"><g><path d="M 1.8125 0 L 0.625 0 L 0.625 -6.078125 L 1.8125 -6.078125 Z M 1.8125 0 "/></g></g></g></svg>