<svg xmlns="http://www.w3.org/2000/svg" xmlns:xlink="http://www.w3.org/1999/xlink" width="80" zoomAndPan="magnify" viewBox="0 0 60 60" height="80" preserveAspectRatio="xMidYMid meet" version="1.0"><defs><g/><clipPath id="934b139df0"><path d="M 7.609375 2.628906 L 54 2.628906 L 54 57.378906 L 7.609375 57.378906 Z M 7.609375 2.628906 " clip-rule="nonzero"/></clipPath></defs><path fill="#000000" d="M 35.546875 25.0625 C 35.773438 25.261719 36.097656 25.328125 36.371094 25.167969 C 36.628906 25.019531 36.773438 24.6875 36.683594 24.402344 C 36.390625 23.433594 36.097656 22.464844 35.800781 21.503906 C 35.769531 21.386719 35.730469 21.273438 35.699219 21.15625 C 35.699219 21.15625 35.695312 21.136719 35.6875 21.117188 C 35.824219 21 36.136719 20.730469 36.164062 20.710938 C 36.546875 20.398438 36.925781 20.089844 37.3125 19.78125 C 37.695312 19.46875 38.074219 19.160156 38.460938 18.851562 C 38.648438 18.695312 38.832031 18.550781 38.925781 18.3125 C 39.046875 17.992188 38.949219 17.628906 38.65625 17.4375 C 38.351562 17.238281 37.882812 17.222656 37.523438 17.160156 C 37.097656 17.089844 36.675781 17.019531 36.246094 16.964844 C 35.796875 16.90625 35.347656 16.832031 34.902344 16.785156 C 34.8125 16.777344 34.714844 16.765625 34.613281 16.753906 C 34.53125 16.417969 34.390625 16.085938 34.273438 15.761719 C 34.121094 15.34375 33.949219 14.929688 33.765625 14.523438 C 33.414062 13.742188 33.007812 12.980469 32.582031 12.238281 C 32.351562 11.84375 31.769531 11.855469 31.542969 12.238281 C 31.0625 13.035156 30.761719 13.921875 30.488281 14.804688 C 30.351562 15.242188 30.21875 15.683594 30.054688 16.109375 C 30.035156 16.160156 30.003906 16.25 29.96875 16.363281 C 29.707031 16.34375 29.429688 16.378906 29.1875 16.398438 C 28.792969 16.429688 28.398438 16.480469 28.003906 16.535156 C 27.253906 16.640625 26.519531 16.828125 25.796875 17.046875 C 25.300781 17.199219 25.117188 17.976562 25.640625 18.226562 C 26.726562 18.75 27.613281 19.574219 28.648438 20.1875 C 28.675781 20.199219 28.703125 20.210938 28.726562 20.222656 C 28.578125 20.429688 28.460938 20.695312 28.382812 20.847656 C 28.167969 21.246094 27.980469 21.65625 27.789062 22.070312 C 27.386719 22.949219 26.992188 23.835938 26.699219 24.753906 C 26.59375 25.078125 26.820312 25.535156 27.171875 25.59375 C 27.851562 25.703125 28.414062 25.351562 28.992188 25.050781 C 29.328125 24.875 29.660156 24.691406 29.988281 24.496094 C 30.320312 24.292969 30.652344 24.074219 30.976562 23.855469 C 31.382812 23.578125 31.839844 23.296875 32.210938 22.960938 C 32.679688 23.339844 33.28125 23.585938 33.792969 23.875 C 34.410156 24.21875 35.011719 24.59375 35.542969 25.058594 Z M 35.671875 21.054688 C 35.671875 21.054688 35.664062 21.019531 35.664062 21.019531 C 35.675781 21.019531 35.675781 21.03125 35.671875 21.054688 Z M 32.011719 21.777344 C 31.949219 21.777344 31.886719 21.78125 31.835938 21.800781 C 30.976562 22.148438 30.234375 22.78125 29.445312 23.261719 C 29.152344 23.441406 28.851562 23.613281 28.546875 23.769531 C 28.5 23.792969 28.453125 23.816406 28.410156 23.839844 C 28.546875 23.367188 28.6875 22.886719 28.835938 22.417969 C 28.972656 21.984375 29.125 21.554688 29.261719 21.121094 C 29.425781 20.601562 29.960938 19.382812 29.335938 19.027344 C 28.738281 18.6875 28.1875 18.277344 27.621094 17.894531 C 27.832031 17.84375 28.042969 17.800781 28.253906 17.753906 C 28.601562 17.679688 28.953125 17.617188 29.300781 17.566406 C 30.304688 17.425781 30.507812 17.28125 30.941406 16.359375 C 31.140625 15.941406 31.3125 15.515625 31.488281 15.085938 C 31.667969 14.652344 31.84375 14.222656 32.042969 13.804688 C 32.261719 14.226562 32.472656 14.652344 32.667969 15.089844 C 32.804688 15.40625 32.957031 15.785156 33.074219 16.140625 C 33.207031 16.542969 33.210938 17.21875 33.535156 17.527344 C 34.148438 18.101562 36.195312 18.105469 37.019531 18.261719 C 37.085938 18.273438 37.15625 18.289062 37.226562 18.304688 C 37.183594 18.339844 37.136719 18.375 37.089844 18.410156 C 36.820312 18.617188 36.550781 18.828125 36.285156 19.035156 C 35.988281 19.265625 35.691406 19.496094 35.398438 19.726562 C 35.132812 19.929688 34.828125 20.121094 34.621094 20.394531 C 34.136719 21.035156 34.578125 21.925781 34.769531 22.609375 C 34.796875 22.703125 34.824219 22.792969 34.851562 22.882812 C 34.777344 22.839844 34.707031 22.792969 34.628906 22.75 C 34.324219 22.574219 34.015625 22.402344 33.703125 22.226562 C 33.316406 22.007812 32.523438 21.410156 32.023438 21.78125 Z M 32.011719 21.777344 " fill-opacity="1" fill-rule="nonzero"/><path fill="#000000" d="M 30.601562 7.894531 C 30.652344 7.992188 30.722656 8.0625 30.808594 8.121094 C 30.882812 8.191406 30.976562 8.238281 31.082031 8.265625 L 31.230469 8.289062 C 31.253906 8.289062 31.28125 8.292969 31.304688 8.296875 C 31.3125 8.296875 31.324219 8.300781 31.339844 8.304688 C 31.339844 8.304688 31.34375 8.304688 31.347656 8.304688 C 31.425781 8.316406 31.496094 8.324219 31.574219 8.335938 C 31.691406 8.339844 31.796875 8.316406 31.898438 8.265625 C 31.9375 8.25 31.972656 8.234375 32.007812 8.21875 C 32.132812 8.144531 32.234375 8.042969 32.308594 7.917969 C 32.382812 7.785156 32.421875 7.644531 32.421875 7.496094 C 32.421875 7.34375 32.382812 7.203125 32.308594 7.070312 C 32.230469 6.945312 32.132812 6.839844 32.007812 6.769531 L 32 6.769531 C 31.898438 6.703125 31.796875 6.671875 31.683594 6.667969 C 31.605469 6.648438 31.535156 6.648438 31.457031 6.667969 C 31.421875 6.671875 31.382812 6.679688 31.339844 6.683594 C 31.328125 6.683594 31.316406 6.6875 31.304688 6.691406 C 31.277344 6.695312 31.253906 6.699219 31.226562 6.703125 C 31.175781 6.707031 31.128906 6.714844 31.078125 6.722656 C 31.015625 6.75 30.949219 6.777344 30.886719 6.804688 C 30.792969 6.851562 30.722656 6.921875 30.664062 7.007812 C 30.613281 7.058594 30.582031 7.117188 30.5625 7.1875 C 30.511719 7.28125 30.488281 7.382812 30.492188 7.496094 C 30.503906 7.566406 30.511719 7.632812 30.523438 7.707031 C 30.550781 7.769531 30.578125 7.835938 30.601562 7.894531 Z M 30.601562 7.894531 " fill-opacity="1" fill-rule="nonzero"/><path fill="#000000" d="M 35.636719 7.957031 C 36.238281 7.957031 36.242188 7.023438 35.636719 7.023438 C 35.035156 7.023438 35.035156 7.957031 35.636719 7.957031 Z M 35.636719 7.957031 " fill-opacity="1" fill-rule="nonzero"/><path fill="#000000" d="M 25.898438 7.832031 C 25.921875 7.878906 25.957031 7.914062 26 7.941406 C 26.039062 7.976562 26.085938 8 26.132812 8.015625 C 26.179688 8.023438 26.226562 8.027344 26.273438 8.035156 C 26.34375 8.054688 26.421875 8.054688 26.492188 8.035156 C 26.566406 8.019531 26.625 7.980469 26.675781 7.929688 C 26.699219 7.902344 26.714844 7.875 26.738281 7.847656 C 26.777344 7.78125 26.796875 7.714844 26.796875 7.636719 C 26.796875 7.582031 26.785156 7.527344 26.761719 7.480469 C 26.746094 7.425781 26.714844 7.382812 26.675781 7.347656 C 26.621094 7.292969 26.5625 7.257812 26.492188 7.238281 C 26.421875 7.222656 26.34375 7.222656 26.273438 7.238281 C 26.226562 7.246094 26.179688 7.253906 26.132812 7.261719 C 26.105469 7.273438 26.074219 7.289062 26.039062 7.300781 C 25.992188 7.324219 25.957031 7.359375 25.929688 7.402344 C 25.90625 7.425781 25.886719 7.457031 25.878906 7.492188 C 25.855469 7.535156 25.847656 7.589844 25.847656 7.640625 C 25.847656 7.675781 25.851562 7.710938 25.859375 7.75 C 25.871094 7.777344 25.886719 7.808594 25.898438 7.84375 Z M 25.898438 7.832031 " fill-opacity="1" fill-rule="nonzero"/><g clip-path="url(#934b139df0)"><path fill="#000000" d="M 27.402344 57.25 C 31.730469 57.320312 36.058594 57.359375 40.382812 57.238281 C 41.617188 57.207031 42.851562 57.160156 44.085938 57.097656 C 45.375 57.035156 46.683594 57 47.960938 56.820312 C 48.082031 56.800781 48.179688 56.761719 48.265625 56.707031 C 48.335938 56.695312 48.410156 56.675781 48.480469 56.640625 C 48.953125 56.433594 49.261719 55.898438 49.101562 55.378906 C 48.980469 54.992188 48.761719 54.625 48.613281 54.261719 C 48.457031 53.882812 48.320312 53.496094 48.1875 53.109375 C 47.890625 52.242188 47.621094 51.367188 47.34375 50.496094 C 47.074219 49.652344 46.804688 48.804688 46.5 47.972656 C 46.296875 47.425781 46.058594 46.851562 45.742188 46.34375 C 45.742188 46.113281 45.667969 45.886719 45.507812 45.691406 C 45.085938 45.167969 44.425781 45.164062 43.808594 45.152344 C 43.324219 45.144531 42.84375 45.140625 42.363281 45.132812 C 41.480469 44.824219 40.6875 44.628906 39.890625 44.121094 C 39.105469 43.617188 38.429688 42.949219 37.863281 42.214844 C 36.570312 40.539062 35.957031 38.449219 35.273438 36.480469 C 38.445312 34.375 41.480469 31.980469 43.386719 28.640625 C 43.632812 28.207031 43.855469 27.761719 44.066406 27.3125 C 44.199219 27.335938 44.34375 27.335938 44.503906 27.296875 C 46.320312 26.824219 48.160156 26.207031 49.675781 25.070312 C 51.058594 24.027344 52.140625 22.640625 52.84375 21.058594 C 53.617188 19.308594 53.960938 17.414062 53.9375 15.5 C 53.925781 14.507812 53.816406 13.519531 53.644531 12.539062 C 53.476562 11.59375 53.28125 10.664062 52.125 10.652344 C 50.964844 10.640625 49.789062 10.742188 48.628906 10.789062 C 48.039062 10.808594 47.457031 10.867188 46.867188 10.925781 C 46.679688 10.941406 46.46875 10.953125 46.265625 10.984375 C 46.234375 10.023438 46.199219 9.066406 46.160156 8.105469 C 46.15625 7.964844 46.125 7.832031 46.074219 7.707031 C 47.054688 7.484375 47.984375 7.058594 48.285156 6.132812 C 48.558594 5.316406 48.195312 4.464844 47.542969 3.949219 C 46.875 3.421875 46.03125 3.320312 45.214844 3.253906 C 43.210938 3.082031 41.203125 2.957031 39.195312 2.863281 C 37.226562 2.773438 35.238281 2.636719 33.265625 2.628906 C 31.289062 2.621094 29.304688 2.648438 27.328125 2.714844 C 25.378906 2.773438 23.425781 2.871094 21.488281 3.085938 C 20.503906 3.195312 19.519531 3.328125 18.542969 3.507812 C 17.683594 3.664062 16.773438 3.792969 15.980469 4.191406 C 15.117188 4.625 14.484375 5.570312 14.667969 6.558594 C 14.828125 7.414062 15.558594 7.957031 16.367188 8.164062 C 16.730469 8.257812 17.101562 8.296875 17.476562 8.3125 C 17.265625 9.035156 17.121094 9.777344 17.011719 10.523438 C 16.566406 10.433594 16.121094 10.433594 15.648438 10.421875 C 15.019531 10.40625 14.386719 10.386719 13.761719 10.375 C 12.496094 10.355469 11.238281 10.375 9.976562 10.40625 C 9.453125 10.414062 8.855469 10.351562 8.394531 10.648438 C 7.753906 11.066406 7.832031 11.816406 7.839844 12.480469 C 7.855469 13.679688 7.871094 14.882812 7.878906 16.082031 C 7.90625 18.355469 8.058594 20.546875 9.015625 22.648438 C 9.832031 24.449219 11.246094 26.070312 13.082031 26.875 C 14.125 27.332031 15.265625 27.605469 16.410156 27.515625 C 16.976562 27.46875 17.832031 27.351562 18.484375 27.03125 C 18.886719 27.929688 19.359375 28.792969 19.90625 29.605469 C 21.203125 31.527344 22.867188 33.078125 24.855469 34.273438 C 26.042969 34.988281 27.296875 35.589844 28.53125 36.234375 C 28.234375 36.554688 28.144531 37.066406 27.972656 37.457031 C 27.753906 37.960938 27.515625 38.464844 27.277344 38.960938 C 26.800781 39.933594 26.238281 40.867188 25.59375 41.746094 C 24.964844 42.605469 24.246094 43.410156 23.460938 44.136719 C 23.070312 44.503906 22.632812 44.820312 22.179688 45.109375 C 21.921875 45.273438 21.671875 45.351562 21.410156 45.421875 C 20.847656 45.457031 20.28125 45.503906 19.722656 45.558594 C 19.175781 45.605469 18.617188 45.691406 18.082031 45.792969 C 17.839844 45.839844 17.601562 45.902344 17.363281 45.972656 C 17.363281 45.972656 17.359375 45.972656 17.355469 45.976562 C 17.210938 45.957031 17.0625 45.996094 16.941406 46.136719 C 16.921875 46.164062 16.902344 46.195312 16.878906 46.222656 C 16.800781 46.273438 16.726562 46.332031 16.632812 46.390625 C 16.5 46.476562 16.457031 46.640625 16.511719 46.773438 C 16.226562 47.292969 16.039062 47.851562 15.828125 48.425781 C 15.542969 49.214844 15.269531 50.003906 15.015625 50.800781 C 14.492188 52.425781 13.96875 54.046875 13.449219 55.667969 C 13.226562 56.351562 13.792969 56.800781 14.355469 56.800781 C 15.351562 57.140625 16.503906 57.070312 17.539062 57.105469 C 18.652344 57.144531 19.769531 57.132812 20.882812 57.152344 C 23.054688 57.183594 25.230469 57.222656 27.402344 57.257812 Z M 46.308594 15.625 C 46.335938 14.4375 46.324219 13.25 46.296875 12.0625 C 46.808594 12.136719 47.375 12.101562 47.796875 12.117188 C 48.691406 12.148438 49.589844 12.113281 50.480469 12.105469 C 50.945312 12.101562 51.410156 12.097656 51.871094 12.089844 C 51.902344 12.089844 51.992188 12.101562 52.054688 12.097656 C 52.03125 12.242188 52.164062 12.644531 52.179688 12.753906 C 52.3125 13.597656 52.382812 14.457031 52.382812 15.3125 C 52.382812 18.328125 51.359375 21.492188 48.910156 23.40625 C 47.738281 24.320312 46.324219 24.824219 44.894531 25.203125 C 45.910156 22.136719 46.238281 18.832031 46.308594 15.621094 Z M 17.253906 25.507812 C 16.691406 25.589844 16.101562 25.578125 15.542969 25.488281 C 14.394531 25.316406 13.320312 24.789062 12.46875 24 C 10.527344 22.199219 9.953125 19.605469 9.863281 17.0625 C 9.832031 16.179688 9.8125 15.296875 9.789062 14.414062 C 9.777344 13.953125 9.765625 13.492188 9.753906 13.03125 C 9.75 12.8125 9.742188 12.597656 9.738281 12.386719 C 9.738281 12.34375 9.738281 12.300781 9.738281 12.257812 C 9.882812 12.25 10.027344 12.238281 10.171875 12.230469 C 10.515625 12.210938 10.863281 12.1875 11.210938 12.167969 C 11.9375 12.125 12.660156 12.066406 13.386719 11.992188 C 14.082031 11.925781 14.773438 11.851562 15.46875 11.773438 C 15.953125 11.722656 16.417969 11.683594 16.875 11.578125 C 16.855469 11.734375 16.835938 11.894531 16.816406 12.054688 C 16.664062 13.410156 16.550781 14.761719 16.527344 16.121094 C 16.488281 18.628906 16.675781 21.160156 17.292969 23.597656 C 17.445312 24.195312 17.625 24.792969 17.828125 25.378906 C 17.644531 25.429688 17.453125 25.484375 17.261719 25.507812 Z M 26.867188 33.039062 C 24.972656 32.054688 23.265625 30.851562 21.945312 29.15625 C 19.230469 25.679688 18.300781 21.175781 18.214844 16.863281 C 18.1875 15.445312 18.226562 14.023438 18.296875 12.609375 C 18.367188 11.183594 18.507812 9.746094 18.40625 8.316406 C 18.675781 8.3125 18.945312 8.304688 19.210938 8.304688 C 20.347656 8.304688 21.488281 8.304688 22.625 8.296875 C 23.660156 8.292969 23.660156 6.714844 22.625 6.699219 C 20.941406 6.671875 19.253906 6.683594 17.570312 6.625 C 17.265625 6.613281 16.585938 6.605469 16.398438 6.328125 C 16.152344 5.960938 16.886719 5.644531 17.148438 5.5625 C 18.65625 5.113281 20.289062 4.941406 21.847656 4.789062 C 23.488281 4.625 25.128906 4.546875 26.777344 4.496094 C 28.464844 4.445312 30.160156 4.421875 31.847656 4.421875 C 33.542969 4.421875 35.238281 4.367188 36.933594 4.40625 C 38.632812 4.445312 40.328125 4.507812 42.019531 4.59375 C 42.867188 4.640625 43.710938 4.691406 44.558594 4.746094 C 45.175781 4.789062 46.054688 4.726562 46.582031 5.117188 C 47.867188 6.066406 44.40625 6.457031 44.039062 6.519531 C 43.109375 6.667969 42.191406 6.789062 41.25 6.855469 C 40.355469 6.921875 39.429688 6.878906 38.550781 7.074219 C 38.265625 7.136719 38.332031 7.496094 38.550781 7.589844 C 39.40625 7.945312 40.421875 7.984375 41.339844 8.027344 C 42.226562 8.0625 43.125 8.054688 44.007812 7.980469 C 44.007812 8.023438 43.996094 8.0625 44 8.105469 C 44.296875 12.359375 44.523438 16.710938 43.859375 20.941406 C 43.539062 22.96875 43.027344 25.003906 42.113281 26.851562 C 41.144531 28.808594 39.691406 30.453125 38.046875 31.875 C 36.25 33.429688 34.234375 34.707031 32.214844 35.953125 C 30.542969 34.789062 28.671875 33.980469 26.863281 33.039062 Z M 26.644531 42.882812 C 27.355469 41.898438 27.96875 40.847656 28.472656 39.75 C 28.730469 39.1875 28.953125 38.617188 29.128906 38.027344 C 29.242188 37.636719 29.441406 37.160156 29.441406 36.726562 C 30.203125 37.148438 30.949219 37.601562 31.652344 38.125 C 31.9375 38.335938 32.429688 38.308594 32.71875 38.125 C 33.207031 37.816406 33.699219 37.507812 34.191406 37.1875 C 34.148438 39.453125 34.875 41.761719 36.199219 43.601562 C 36.585938 44.136719 37.027344 44.628906 37.507812 45.074219 C 34.804688 45.054688 32.101562 45.054688 29.402344 45.121094 C 27.8125 45.164062 26.222656 45.1875 24.632812 45.25 C 25.347656 44.496094 26.035156 43.730469 26.652344 42.882812 Z M 16.140625 55.492188 C 15.902344 55.5 15.664062 55.511719 15.429688 55.53125 C 15.867188 54.144531 16.300781 52.753906 16.738281 51.367188 C 16.980469 50.597656 17.210938 49.824219 17.421875 49.050781 C 17.574219 48.492188 17.753906 47.9375 17.835938 47.367188 C 18.335938 47.449219 18.839844 47.480469 19.34375 47.523438 C 20.28125 47.597656 21.246094 47.566406 22.1875 47.578125 C 24.117188 47.609375 26.042969 47.558594 27.972656 47.550781 C 31.828125 47.535156 35.683594 47.476562 39.539062 47.484375 C 40.488281 47.484375 41.4375 47.488281 42.382812 47.496094 C 42.824219 47.496094 43.269531 47.503906 43.710938 47.507812 C 43.917969 47.507812 44.128906 47.515625 44.339844 47.503906 C 44.453125 47.90625 44.582031 48.308594 44.699219 48.703125 C 44.953125 49.554688 45.171875 50.417969 45.398438 51.277344 C 45.613281 52.113281 45.839844 52.941406 46.121094 53.761719 C 46.257812 54.171875 46.40625 54.578125 46.566406 54.972656 C 46.589844 55.035156 46.617188 55.101562 46.640625 55.160156 C 45.878906 55.207031 45.117188 55.273438 44.363281 55.316406 C 43.28125 55.371094 42.203125 55.421875 41.121094 55.457031 C 38.953125 55.527344 36.78125 55.5625 34.613281 55.574219 C 30.28125 55.597656 25.953125 55.515625 21.621094 55.472656 C 20.382812 55.460938 19.148438 55.4375 17.914062 55.441406 C 17.320312 55.441406 16.730469 55.472656 16.136719 55.496094 Z M 16.140625 55.492188 " fill-opacity="1" fill-rule="nonzero"/></g><path fill="#000000" d="M 24.546875 53.050781 C 25.277344 53.179688 26.050781 53.128906 26.730469 52.804688 C 26.933594 52.710938 27.304688 52.339844 27.527344 52.382812 C 27.707031 52.417969 27.886719 52.664062 28.003906 52.789062 C 28.433594 53.234375 28.84375 53.683594 29.507812 53.71875 C 30.125 53.75 30.625 53.425781 31.085938 53.058594 C 31.519531 52.710938 31.898438 52.316406 32.5 52.460938 C 33.28125 52.65625 33.902344 53.253906 34.691406 53.449219 C 35.414062 53.632812 36.160156 53.511719 36.734375 53.015625 C 37.277344 52.550781 37.65625 51.515625 36.871094 51.074219 C 36.621094 50.933594 36.308594 50.976562 36.101562 51.171875 C 35.742188 51.519531 35.867188 52.105469 35.199219 52.023438 C 34.574219 51.941406 34.007812 51.480469 33.4375 51.242188 C 32.808594 50.980469 32.121094 50.851562 31.464844 51.089844 C 30.921875 51.285156 30.511719 51.683594 30.074219 52.046875 C 29.78125 52.285156 29.558594 52.519531 29.199219 52.285156 C 28.8125 52.03125 28.582031 51.597656 28.171875 51.363281 C 27.613281 51.042969 27.042969 51.207031 26.546875 51.554688 C 25.953125 51.96875 25.402344 52.257812 24.660156 52.265625 C 24.222656 52.265625 24.09375 52.972656 24.550781 53.050781 Z M 24.546875 53.050781 " fill-opacity="1" fill-rule="nonzero"/><path fill="#000000" d="M 44.683594 29.628906 C 44.359375 30.167969 44.109375 30.738281 43.75 31.257812 C 43.402344 31.753906 43.019531 32.226562 42.605469 32.664062 C 41.757812 33.558594 40.777344 34.375 39.730469 35.03125 C 39.367188 35.261719 39.683594 35.746094 40.058594 35.589844 C 41.300781 35.066406 42.390625 34.355469 43.382812 33.4375 C 43.859375 32.996094 44.304688 32.511719 44.710938 31.996094 C 45.121094 31.476562 45.59375 30.925781 45.875 30.324219 C 46.035156 29.984375 45.972656 29.582031 45.628906 29.378906 C 45.300781 29.1875 44.875 29.308594 44.683594 29.625 Z M 44.683594 29.628906 " fill-opacity="1" fill-rule="nonzero"/><path fill="#000000" d="M 15.265625 33.476562 C 15.601562 33.289062 15.914062 33.089844 16.210938 32.851562 C 16.347656 32.746094 16.480469 32.632812 16.609375 32.519531 C 16.691406 32.449219 16.773438 32.378906 16.832031 32.289062 C 16.890625 32.199219 16.917969 32.074219 16.941406 31.96875 C 17.011719 31.714844 16.816406 31.445312 16.542969 31.449219 C 16.480469 31.449219 16.414062 31.449219 16.351562 31.449219 C 16.191406 31.464844 16.070312 31.527344 15.9375 31.605469 C 15.796875 31.691406 15.65625 31.769531 15.515625 31.847656 C 15.210938 32.015625 14.917969 32.191406 14.613281 32.359375 C 14.316406 32.515625 14.015625 32.660156 13.707031 32.796875 C 13.695312 32.800781 13.683594 32.808594 13.675781 32.8125 C 13.644531 32.824219 13.617188 32.839844 13.582031 32.851562 C 13.472656 32.894531 13.367188 32.945312 13.261719 33 C 13.101562 33.082031 12.9375 33.160156 12.773438 33.238281 C 12.511719 33.359375 12.4375 33.714844 12.539062 33.957031 C 12.652344 34.230469 12.9375 34.355469 13.222656 34.292969 C 13.605469 34.210938 13.957031 34.105469 14.3125 33.945312 C 14.636719 33.804688 14.957031 33.644531 15.269531 33.472656 Z M 15.265625 33.476562 " fill-opacity="1" fill-rule="nonzero"/><path fill="#000000" d="M 15.699219 37.101562 C 15.546875 37.324219 15.460938 37.570312 15.371094 37.824219 C 15.183594 38.390625 15.917969 38.984375 16.417969 38.628906 C 16.625 38.480469 16.828125 38.34375 16.992188 38.148438 C 17.171875 37.933594 17.316406 37.703125 17.46875 37.476562 C 17.710938 37.101562 17.957031 36.726562 18.203125 36.351562 C 18.4375 35.988281 18.675781 35.628906 18.914062 35.265625 C 19.175781 34.863281 19.46875 34.476562 19.640625 34.03125 C 19.722656 33.816406 19.585938 33.550781 19.398438 33.4375 C 19.183594 33.3125 18.949219 33.378906 18.765625 33.523438 C 18.425781 33.785156 18.171875 34.15625 17.894531 34.480469 C 17.605469 34.824219 17.316406 35.160156 17.027344 35.503906 C 16.746094 35.832031 16.46875 36.164062 16.1875 36.492188 C 16.019531 36.691406 15.839844 36.886719 15.691406 37.101562 Z M 15.699219 37.101562 " fill-opacity="1" fill-rule="nonzero"/><path fill="#000000" d="M 21.636719 39.847656 C 21.90625 39.886719 22.15625 39.757812 22.300781 39.527344 C 22.421875 39.335938 22.539062 39.152344 22.597656 38.929688 C 22.648438 38.746094 22.671875 38.558594 22.695312 38.371094 C 22.753906 37.96875 22.804688 37.5625 22.847656 37.160156 C 22.886719 36.796875 22.902344 36.441406 22.90625 36.074219 C 22.90625 35.890625 22.917969 35.695312 22.902344 35.511719 C 22.886719 35.304688 22.824219 35.105469 22.773438 34.90625 C 22.683594 34.5625 22.121094 34.441406 21.960938 34.800781 C 21.878906 34.980469 21.777344 35.160156 21.714844 35.351562 C 21.664062 35.527344 21.636719 35.71875 21.59375 35.898438 C 21.511719 36.25 21.433594 36.601562 21.367188 36.960938 C 21.296875 37.316406 21.222656 37.671875 21.140625 38.027344 C 21.101562 38.210938 21.0625 38.394531 21.035156 38.582031 C 20.992188 38.855469 21.042969 39.101562 21.085938 39.367188 C 21.121094 39.625 21.40625 39.816406 21.640625 39.847656 Z M 21.636719 39.847656 " fill-opacity="1" fill-rule="nonzero"/><g fill="#000000" fill-opacity="1"><g transform="translate(16.879731, 20.197328)"><g><path d="M 1.390625 0 L 0.46875 0 L 0.46875 -4.640625 L 1.390625 -4.640625 Z M 1.390625 0 "/></g></g></g></svg>