<svg xmlns="http://www.w3.org/2000/svg" xmlns:xlink="http://www.w3.org/1999/xlink" width="80" zoomAndPan="magnify" viewBox="0 0 60 60" height="80" preserveAspectRatio="xMidYMid meet" version="1.0"><defs><g/><clipPath id="fdab4aac4c"><path d="M 4.765625 4.265625 L 54 4.265625 L 54 56 L 4.765625 56 Z M 4.765625 4.265625 " clip-rule="nonzero"/></clipPath><clipPath id="e175a99b70"><path d="M 47 4.265625 L 50 4.265625 L 50 11 L 47 11 Z M 47 4.265625 " clip-rule="nonzero"/></clipPath></defs><g clip-path="url(#fdab4aac4c)"><path fill="#000000" d="M 53.351562 19.65625 C 53.230469 18.765625 53.175781 17.8125 52.796875 16.980469 C 52.796875 16.867188 52.75 16.757812 52.648438 16.675781 C 51.300781 15.578125 49.730469 14.765625 48.214844 13.917969 C 46.6875 13.066406 45.148438 12.230469 43.601562 11.421875 C 40.5 9.800781 37.351562 8.273438 34.160156 6.851562 C 32.683594 6.195312 31.199219 5.570312 29.660156 5.105469 C 29.628906 4.816406 29.375 4.558594 29.007812 4.644531 C 28.144531 4.839844 27.292969 5.355469 26.496094 5.738281 C 25.558594 6.179688 24.632812 6.636719 23.703125 7.101562 C 21.699219 8.105469 19.710938 9.136719 17.734375 10.183594 C 14.382812 11.960938 11.054688 13.789062 7.753906 15.660156 C 7.265625 15.9375 6.796875 16.242188 6.328125 16.554688 C 6.09375 16.703125 6.054688 16.75 5.914062 16.894531 C 5.910156 16.898438 5.902344 16.902344 5.898438 16.910156 C 5.820312 16.921875 5.753906 16.972656 5.738281 17.078125 C 5.738281 17.089844 5.730469 17.105469 5.730469 17.121094 C 5.726562 17.128906 5.71875 17.140625 5.714844 17.152344 C 5.699219 17.195312 5.699219 17.242188 5.707031 17.28125 C 5.417969 18.960938 5.148438 20.632812 5.082031 22.339844 C 5.011719 24.125 4.960938 25.917969 4.9375 27.707031 C 4.882812 31.253906 5.023438 34.816406 5.195312 38.355469 C 5.289062 40.363281 5.472656 42.367188 5.558594 44.371094 C 5.558594 44.46875 5.582031 44.566406 5.613281 44.652344 C 5.613281 44.800781 5.671875 44.941406 5.808594 45.050781 C 7.097656 46.089844 8.621094 46.835938 10.085938 47.601562 C 11.519531 48.347656 12.964844 49.074219 14.425781 49.769531 C 17.332031 51.148438 20.269531 52.453125 23.226562 53.71875 C 24.960938 54.460938 26.707031 55.195312 28.449219 55.925781 C 28.671875 56.019531 28.910156 55.972656 29.113281 55.851562 C 29.402344 55.90625 29.671875 55.78125 29.972656 55.644531 C 30.367188 55.464844 30.753906 55.28125 31.140625 55.074219 C 31.9375 54.660156 32.734375 54.246094 33.539062 53.839844 C 35.136719 53.027344 36.746094 52.234375 38.355469 51.445312 C 41.546875 49.886719 44.761719 48.382812 47.988281 46.90625 C 48.878906 46.5 49.765625 46.09375 50.660156 45.691406 C 51.125 45.480469 51.589844 45.269531 52.054688 45.054688 C 52.378906 44.910156 52.691406 44.796875 52.953125 44.597656 C 53.378906 44.507812 53.757812 44.1875 53.777344 43.621094 C 53.90625 40.125 53.941406 36.628906 53.953125 33.132812 C 53.96875 29.648438 53.910156 26.148438 53.636719 22.675781 C 53.558594 21.667969 53.492188 20.65625 53.355469 19.65625 Z M 23.421875 8.527344 C 24.484375 7.996094 25.550781 7.46875 26.621094 6.957031 C 27.101562 6.726562 27.585938 6.5 28.070312 6.277344 C 28.449219 6.105469 28.851562 5.949219 29.214844 5.738281 C 30.464844 6.445312 31.753906 7.058594 33.058594 7.652344 C 34.648438 8.382812 36.222656 9.132812 37.796875 9.902344 C 40.894531 11.410156 43.945312 13.007812 46.953125 14.691406 C 48.375 15.488281 49.765625 16.382812 51.234375 17.101562 C 50.355469 17.527344 49.484375 17.972656 48.625 18.429688 C 48.320312 18.589844 48.003906 18.746094 47.71875 18.941406 C 47.648438 18.992188 47.585938 19.042969 47.519531 19.097656 C 47.238281 19.246094 46.949219 19.402344 46.683594 19.566406 C 46.285156 19.816406 45.886719 20.0625 45.488281 20.304688 C 45.261719 20.441406 45.035156 20.578125 44.808594 20.714844 C 44.632812 20.535156 44.402344 20.40625 44.160156 20.273438 C 43.746094 20.054688 43.332031 19.835938 42.921875 19.613281 L 40.515625 18.332031 C 38.914062 17.472656 37.3125 16.621094 35.710938 15.761719 C 32.503906 14.050781 29.277344 12.382812 26.039062 10.730469 C 25.195312 10.304688 24.34375 9.902344 23.503906 9.472656 C 23.191406 9.3125 22.902344 9.128906 22.609375 8.9375 C 22.882812 8.800781 23.148438 8.660156 23.417969 8.523438 Z M 48.515625 20.394531 C 48.539062 20.378906 48.5625 20.363281 48.585938 20.34375 C 48.714844 20.234375 48.554688 20.378906 48.515625 20.394531 Z M 21.5625 9.484375 C 21.785156 9.949219 22.4375 10.304688 22.804688 10.546875 C 23.496094 11 24.222656 11.402344 24.941406 11.808594 C 26.5 12.6875 28.054688 13.566406 29.617188 14.441406 C 32.730469 16.199219 35.90625 17.851562 39.058594 19.542969 C 39.929688 20.015625 40.800781 20.480469 41.675781 20.953125 C 42.136719 21.199219 42.597656 21.449219 43.054688 21.695312 C 43.351562 21.851562 43.648438 22.042969 43.960938 22.125 C 43.898438 22.660156 43.917969 23.210938 43.90625 23.738281 C 43.886719 24.550781 43.851562 25.363281 43.824219 26.171875 C 43.792969 26.957031 43.800781 27.742188 43.816406 28.527344 C 43.816406 28.5625 43.816406 28.589844 43.816406 28.625 C 43.59375 28.492188 43.375 28.355469 43.148438 28.230469 C 42.796875 28.039062 42.4375 27.847656 42.074219 27.667969 C 41.609375 27.433594 41.070312 27.234375 40.640625 27.667969 C 40.332031 27.980469 40.210938 28.53125 40.0625 28.941406 C 39.90625 29.394531 39.769531 29.851562 39.636719 30.3125 C 39.605469 30.410156 39.574219 30.511719 39.542969 30.613281 C 39.34375 28.589844 39.199219 26.5625 39.007812 24.539062 C 38.996094 24.417969 38.953125 24.3125 38.894531 24.234375 C 38.878906 24.191406 38.867188 24.152344 38.84375 24.117188 C 38.84375 24.113281 38.835938 24.105469 38.832031 24.101562 C 38.84375 23.78125 38.695312 23.441406 38.402344 23.296875 C 32.324219 20.257812 26.125 17.46875 19.980469 14.5625 C 19.179688 14.183594 18.378906 13.804688 17.585938 13.414062 C 17.175781 13.210938 16.75 13.050781 16.328125 12.878906 C 16.09375 12.777344 15.855469 12.6875 15.609375 12.613281 C 17.585938 11.554688 19.566406 10.503906 21.558594 9.480469 Z M 41.105469 28.710938 L 41.085938 28.710938 C 41.085938 28.710938 41.066406 28.6875 41.0625 28.675781 C 41.074219 28.6875 41.089844 28.699219 41.105469 28.710938 Z M 28.894531 31.226562 C 28.820312 32.082031 28.773438 32.945312 28.714844 33.800781 C 28.59375 35.488281 28.558594 37.1875 28.503906 38.875 C 28.394531 42.277344 28.386719 45.695312 28.34375 49.101562 C 28.332031 50.042969 28.328125 50.984375 28.320312 51.929688 C 28.316406 52.566406 28.28125 53.214844 28.28125 53.863281 C 22.621094 51.511719 17 49.074219 11.492188 46.375 C 10.117188 45.699219 8.75 44.917969 7.328125 44.332031 C 7.132812 42.597656 7.054688 40.839844 6.957031 39.097656 C 6.855469 37.308594 6.773438 35.523438 6.714844 33.734375 C 6.59375 30.214844 6.535156 26.6875 6.519531 23.164062 C 6.519531 22.175781 6.488281 21.183594 6.457031 20.195312 C 6.441406 19.648438 6.390625 19.101562 6.332031 18.554688 C 6.757812 18.863281 7.3125 19.082031 7.714844 19.28125 C 8.464844 19.65625 9.238281 19.980469 9.996094 20.339844 C 11.53125 21.066406 13.050781 21.820312 14.570312 22.578125 C 17.554688 24.074219 20.511719 25.632812 23.476562 27.171875 C 25.179688 28.050781 26.886719 28.925781 28.609375 29.777344 C 28.761719 29.851562 28.921875 29.886719 29.082031 29.890625 C 29.003906 30.339844 28.933594 30.78125 28.894531 31.226562 Z M 29.574219 28.105469 C 23.472656 25.148438 17.507812 21.914062 11.351562 19.085938 C 10.496094 18.691406 9.632812 18.300781 8.765625 17.925781 C 8.316406 17.734375 7.855469 17.5625 7.390625 17.410156 C 7.222656 17.355469 7.046875 17.296875 6.867188 17.261719 C 7.175781 17.128906 7.480469 16.980469 7.78125 16.832031 C 9.15625 16.132812 10.5 15.355469 11.863281 14.625 C 12.828125 14.109375 13.792969 13.589844 14.761719 13.074219 C 14.769531 13.085938 14.777344 13.101562 14.789062 13.117188 C 15.273438 13.699219 16.082031 14.117188 16.730469 14.5 C 17.394531 14.890625 18.097656 15.234375 18.78125 15.589844 C 20.171875 16.320312 21.566406 17.027344 22.976562 17.722656 C 25.945312 19.179688 28.929688 20.609375 31.898438 22.070312 C 33.457031 22.835938 35.011719 23.609375 36.5625 24.386719 C 35.554688 24.886719 34.546875 25.398438 33.546875 25.925781 C 33.035156 26.195312 32.515625 26.445312 32.015625 26.738281 C 31.59375 26.988281 31.171875 27.238281 30.746094 27.488281 C 30.460938 27.652344 30.175781 27.824219 29.894531 27.992188 C 29.808594 28.039062 29.71875 28.089844 29.621094 28.140625 C 29.601562 28.128906 29.589844 28.113281 29.566406 28.105469 Z M 51.871094 37.800781 C 51.832031 39.699219 51.777344 41.601562 51.726562 43.503906 C 51.6875 43.519531 51.65625 43.535156 51.617188 43.550781 C 51.199219 43.742188 50.78125 43.933594 50.363281 44.121094 C 49.570312 44.484375 48.777344 44.847656 47.984375 45.214844 C 46.355469 45.964844 44.726562 46.71875 43.105469 47.488281 C 39.851562 49.023438 36.613281 50.589844 33.421875 52.257812 C 32.558594 52.710938 31.691406 53.167969 30.835938 53.632812 C 30.648438 53.730469 30.464844 53.832031 30.277344 53.933594 C 30.289062 53.402344 30.273438 52.867188 30.277344 52.34375 L 30.308594 49.769531 C 30.328125 48.078125 30.324219 46.386719 30.332031 44.695312 C 30.34375 41.285156 30.359375 37.878906 30.265625 34.46875 C 30.238281 33.527344 30.171875 32.585938 30.125 31.640625 C 30.085938 30.917969 29.980469 30.199219 29.875 29.480469 C 29.890625 29.464844 29.902344 29.449219 29.914062 29.429688 C 29.957031 29.347656 29.988281 29.257812 30.007812 29.164062 C 30.027344 29.15625 30.050781 29.148438 30.070312 29.140625 C 30.394531 29.019531 30.714844 28.894531 31.039062 28.769531 C 31.476562 28.605469 31.917969 28.433594 32.355469 28.265625 C 32.84375 28.082031 33.316406 27.882812 33.78125 27.65625 C 34.28125 27.414062 34.773438 27.152344 35.273438 26.902344 C 36.128906 26.476562 36.988281 26.054688 37.84375 25.625 C 37.757812 28.058594 37.941406 30.507812 38.226562 32.921875 C 38.273438 33.347656 38.546875 33.710938 39.007812 33.710938 C 39.304688 33.710938 39.640625 33.492188 39.753906 33.195312 C 40 32.921875 40.144531 32.597656 40.296875 32.253906 C 40.492188 31.816406 40.628906 31.359375 40.777344 30.902344 C 40.914062 30.476562 41.046875 30.054688 41.195312 29.636719 C 41.265625 29.425781 41.34375 29.214844 41.421875 29.003906 C 41.421875 28.996094 41.425781 28.996094 41.429688 28.988281 C 41.539062 29.078125 41.644531 29.171875 41.753906 29.261719 C 41.984375 29.457031 42.210938 29.65625 42.433594 29.855469 C 42.703125 30.089844 42.992188 30.296875 43.277344 30.507812 C 43.617188 30.765625 43.941406 31.023438 44.335938 31.183594 C 44.710938 31.335938 45.238281 31.089844 45.421875 30.742188 C 45.457031 30.675781 45.480469 30.601562 45.5 30.527344 C 45.8125 29.902344 45.660156 29.144531 45.617188 28.460938 C 45.5625 27.652344 45.523438 26.839844 45.449219 26.035156 C 45.378906 25.246094 45.308594 24.460938 45.222656 23.671875 C 45.160156 23.089844 45.109375 22.488281 44.9375 21.925781 C 45.242188 21.8125 45.542969 21.699219 45.84375 21.585938 C 46.257812 21.429688 46.675781 21.273438 47.089844 21.113281 C 47.5 20.957031 47.914062 20.785156 48.289062 20.550781 C 48.367188 20.503906 48.4375 20.449219 48.503906 20.390625 C 48.746094 20.304688 48.996094 20.101562 49.222656 19.984375 C 50.066406 19.542969 50.925781 19.125 51.777344 18.695312 C 51.78125 18.984375 51.792969 19.269531 51.789062 19.558594 C 51.785156 20.386719 51.820312 21.21875 51.835938 22.046875 C 51.871094 23.78125 51.910156 25.515625 51.933594 27.253906 C 51.976562 30.773438 51.933594 34.28125 51.859375 37.796875 Z M 51.871094 37.800781 " fill-opacity="1" fill-rule="nonzero"/></g><path fill="#000000" d="M 5.363281 17.804688 C 5.410156 17.804688 5.410156 17.726562 5.363281 17.726562 C 5.3125 17.726562 5.3125 17.804688 5.363281 17.804688 Z M 5.363281 17.804688 " fill-opacity="1" fill-rule="nonzero"/><path fill="#000000" d="M 17.074219 39.695312 C 16.699219 39.84375 16.378906 40.171875 15.949219 40.113281 C 15.507812 40.058594 15.207031 39.75 14.917969 39.4375 C 14.652344 39.144531 14.332031 38.851562 13.933594 38.765625 C 13.675781 38.714844 13.429688 38.820312 13.175781 38.789062 C 13.015625 38.765625 12.921875 38.667969 12.816406 38.539062 C 12.546875 38.21875 12.410156 37.816406 12.109375 37.523438 C 11.796875 37.21875 11.378906 37.042969 10.941406 37.082031 C 10.519531 37.113281 10.152344 37.316406 9.792969 37.523438 C 9.648438 37.605469 9.515625 37.683594 9.382812 37.738281 C 9.363281 37.726562 9.347656 37.71875 9.324219 37.710938 C 8.890625 37.558594 8.472656 37.847656 8.351562 38.269531 C 8.277344 38.519531 8.394531 38.894531 8.648438 39.007812 C 9.140625 39.222656 9.558594 39.183594 10.042969 38.960938 C 10.355469 38.816406 10.652344 38.539062 10.988281 38.464844 C 11.226562 38.40625 11.390625 38.859375 11.53125 39.078125 C 11.820312 39.519531 12.203125 39.933594 12.71875 40.09375 C 12.988281 40.179688 13.28125 40.179688 13.546875 40.085938 C 13.742188 40.015625 13.832031 39.90625 14.007812 40.035156 C 14.171875 40.15625 14.304688 40.359375 14.445312 40.503906 C 14.632812 40.699219 14.828125 40.882812 15.050781 41.03125 C 15.859375 41.570312 17.558594 41.671875 17.824219 40.453125 C 17.914062 40.039062 17.539062 39.511719 17.074219 39.695312 Z M 17.074219 39.695312 " fill-opacity="1" fill-rule="nonzero"/><path fill="#000000" d="M 15.183594 43.539062 C 14.554688 43.570312 13.964844 43.757812 13.328125 43.734375 C 13.171875 43.726562 12.996094 43.710938 12.839844 43.734375 C 12.832031 43.734375 12.824219 43.734375 12.820312 43.734375 C 12.75 43.386719 12.652344 43.035156 12.503906 42.710938 C 12.230469 42.105469 11.625 41.617188 10.933594 41.707031 C 10.609375 41.75 10.351562 41.921875 10.074219 42.078125 C 10 42.117188 9.898438 42.175781 9.8125 42.179688 C 9.785156 42.179688 9.757812 42.179688 9.734375 42.179688 C 9.683594 42.175781 9.660156 42.113281 9.691406 42.183594 C 9.585938 41.929688 9.195312 41.867188 9.113281 42.183594 C 8.925781 42.894531 9.789062 43.261719 10.347656 43.070312 C 10.558594 42.996094 10.890625 42.722656 11.121094 42.820312 C 11.417969 42.941406 11.488281 43.390625 11.539062 43.660156 C 11.621094 44.097656 11.664062 44.53125 12.039062 44.824219 C 12.367188 45.078125 12.867188 45.167969 13.277344 45.140625 C 13.714844 45.109375 14.148438 44.984375 14.546875 44.804688 C 14.945312 44.625 15.238281 44.417969 15.472656 44.039062 C 15.597656 43.832031 15.433594 43.527344 15.1875 43.539062 Z M 15.183594 43.539062 " fill-opacity="1" fill-rule="nonzero"/><g clip-path="url(#e175a99b70)"><path fill="#000000" d="M 49.117188 4.941406 C 48.976562 4.59375 48.691406 4.28125 48.28125 4.300781 C 47.882812 4.316406 47.574219 4.5625 47.445312 4.941406 C 47.359375 5.195312 47.390625 5.460938 47.40625 5.722656 C 47.414062 5.9375 47.425781 6.148438 47.433594 6.359375 C 47.457031 6.757812 47.472656 7.152344 47.507812 7.542969 C 47.542969 7.9375 47.578125 8.335938 47.613281 8.726562 C 47.65625 9.199219 47.675781 9.765625 48.007812 10.132812 C 48.199219 10.339844 48.613281 10.363281 48.800781 10.132812 C 49.113281 9.746094 49.121094 9.210938 49.140625 8.726562 C 49.152344 8.335938 49.167969 7.9375 49.183594 7.542969 C 49.195312 7.152344 49.191406 6.753906 49.1875 6.359375 C 49.1875 6.148438 49.1875 5.9375 49.1875 5.722656 C 49.1875 5.46875 49.210938 5.1875 49.117188 4.941406 Z M 49.117188 4.941406 " fill-opacity="1" fill-rule="nonzero"/></g><path fill="#000000" d="M 50.644531 11.316406 C 50.890625 11.457031 51.1875 11.367188 51.332031 11.132812 C 51.773438 10.433594 52.226562 9.738281 52.664062 9.039062 C 52.875 8.699219 53.058594 8.34375 53.253906 7.996094 C 53.351562 7.824219 53.449219 7.652344 53.546875 7.476562 C 53.605469 7.378906 53.664062 7.28125 53.714844 7.179688 C 53.808594 7.007812 53.84375 6.859375 53.867188 6.667969 C 53.902344 6.402344 53.664062 6.128906 53.445312 6.035156 C 53.179688 5.921875 52.914062 5.996094 52.699219 6.179688 C 52.519531 6.332031 52.433594 6.558594 52.328125 6.761719 C 52.234375 6.9375 52.140625 7.113281 52.050781 7.292969 C 51.855469 7.660156 51.65625 8.023438 51.480469 8.398438 C 51.136719 9.136719 50.804688 9.886719 50.464844 10.628906 C 50.351562 10.878906 50.394531 11.175781 50.644531 11.320312 Z M 50.644531 11.316406 " fill-opacity="1" fill-rule="nonzero"/><path fill="#000000" d="M 56.792969 9.292969 C 56.507812 9.382812 56.285156 9.527344 56.054688 9.714844 C 55.960938 9.789062 55.871094 9.863281 55.777344 9.933594 C 55.769531 9.941406 55.722656 9.976562 55.703125 9.992188 C 55.683594 10.007812 55.636719 10.046875 55.628906 10.050781 C 55.253906 10.339844 54.90625 10.652344 54.535156 10.945312 C 54.273438 11.152344 53.921875 11.414062 53.605469 11.644531 C 53.226562 11.914062 52.863281 12.191406 52.5 12.484375 C 52.136719 12.777344 52.53125 13.417969 52.953125 13.269531 C 53.800781 12.972656 54.582031 12.539062 55.359375 12.085938 C 55.726562 11.867188 56.109375 11.652344 56.453125 11.398438 C 56.867188 11.097656 57.347656 10.804688 57.597656 10.339844 C 57.882812 9.8125 57.410156 9.109375 56.796875 9.292969 Z M 56.792969 9.292969 " fill-opacity="1" fill-rule="nonzero"/><path fill="#000000" d="M 5.601562 15.945312 C 6.617188 15.636719 7.558594 15.042969 8.472656 14.511719 C 9.40625 13.96875 10.285156 13.339844 11.152344 12.6875 C 11.269531 12.601562 11.167969 12.414062 11.035156 12.484375 C 10.105469 13 9.152344 13.460938 8.207031 13.949219 C 7.269531 14.433594 6.257812 14.808594 5.367188 15.375 C 5.078125 15.558594 5.261719 16.050781 5.605469 15.945312 Z M 5.601562 15.945312 " fill-opacity="1" fill-rule="nonzero"/><path fill="#000000" d="M 11.949219 12.484375 C 12.421875 12.484375 12.425781 11.742188 11.949219 11.742188 C 11.476562 11.742188 11.476562 12.484375 11.949219 12.484375 Z M 11.949219 12.484375 " fill-opacity="1" fill-rule="nonzero"/><g fill="#000000" fill-opacity="1"><g transform="translate(28.12973, 40.768754)"><g><path d="M 1.390625 0 L 0.46875 0 L 0.46875 -4.640625 L 1.390625 -4.640625 Z M 1.390625 0 "/></g></g></g></svg>