<svg xmlns="http://www.w3.org/2000/svg" xmlns:xlink="http://www.w3.org/1999/xlink" width="80" zoomAndPan="magnify" viewBox="0 0 60 60" height="80" preserveAspectRatio="xMidYMid meet" version="1.0"><defs><g/><clipPath id="ed27ec8a0c"><path d="M 12.664062 6 L 47.164062 6 L 47.164062 56.25 L 12.664062 56.25 Z M 12.664062 6 " clip-rule="nonzero"/></clipPath></defs><path fill="#000000" d="M 37.984375 46.234375 C 37.582031 46.652344 38.105469 46.113281 37.984375 46.566406 C 38.15625 46.480469 38.085938 46.351562 37.984375 46.234375 Z M 37.984375 46.234375 " fill-opacity="1" fill-rule="nonzero"/><path fill="#000000" d="M 14.421875 13.945312 C 14.386719 14.003906 14.398438 14.054688 14.414062 14.15625 C 14.421875 14.148438 14.421875 14.140625 14.429688 14.140625 C 14.429688 14.074219 14.429688 14.003906 14.421875 13.945312 Z M 14.421875 13.945312 " fill-opacity="1" fill-rule="nonzero"/><path fill="#000000" d="M 14.824219 34.667969 C 14.839844 34.675781 14.867188 34.683594 14.890625 34.683594 C 14.867188 34.617188 14.839844 34.539062 14.808594 34.460938 Z M 14.824219 34.667969 " fill-opacity="1" fill-rule="nonzero"/><g clip-path="url(#ed27ec8a0c)"><path fill="#000000" d="M 39.113281 46.746094 C 39.863281 44.195312 41.453125 42.21875 43 39.824219 C 43.273438 38.921875 43.5625 37.734375 44.007812 36.992188 C 44.570312 35.296875 45.304688 33.660156 45.988281 32.007812 C 46.765625 30.113281 47.160156 28.121094 47.144531 26.210938 C 46.996094 26.40625 46.808594 26.167969 46.765625 25.972656 L 46.886719 25.929688 L 46.648438 25.613281 C 46.628906 25.324219 46.964844 25.46875 46.988281 25.707031 C 47.058594 24.164062 47.007812 22.828125 46.921875 21.234375 C 46.542969 21.179688 46.800781 20.390625 46.382812 20.390625 C 46.441406 20.304688 46.476562 20.371094 46.5625 20.40625 C 46.175781 19.28125 46.125 19.304688 46.367188 18.207031 C 45.492188 14.140625 43.238281 10.332031 39.308594 7.695312 C 37.25 6.382812 34.574219 6.160156 32.867188 6.109375 C 30.917969 6.015625 28.9375 6 26.878906 6.152344 C 26.289062 6.792969 25.398438 6.578125 24.726562 7.210938 L 24.75 7.015625 C 24.160156 7.398438 23.964844 7.058594 23.101562 7.015625 C 23.136719 7.226562 22.804688 7.140625 23 7.464844 C 22.804688 7.824219 22.375 7.074219 22.007812 7.363281 C 21.957031 7.253906 22.078125 7.570312 21.964844 7.484375 C 21.058594 8.234375 22.121094 7.175781 20.648438 7.355469 C 18.78125 8.191406 17.171875 9.871094 15.953125 11.414062 C 16.003906 11.300781 16.277344 11.414062 16.171875 11.582031 C 15.585938 11.429688 15.96875 12.214844 15.609375 12.382812 C 15.515625 12.308594 15.550781 12.144531 15.558594 12.042969 C 14.917969 12.691406 14.945312 13.484375 14.429688 14.125 C 14.40625 14.917969 13.644531 15.582031 13.824219 16.152344 C 13.628906 15.980469 13.578125 16.433594 13.421875 16.5625 C 13.988281 17.226562 12.882812 17.933594 13.25 18.675781 L 13.132812 18.632812 C 12.902344 20.601562 12.671875 22.808594 13.261719 24.882812 C 13.484375 25.929688 13.003906 27.214844 13.484375 28.359375 C 13.601562 28.5625 13.730469 28.367188 13.824219 28.539062 C 13.851562 28.835938 13.609375 28.5625 13.542969 28.691406 C 13.894531 29.226562 13.695312 30.054688 13.816406 30.796875 C 13.945312 30.863281 14.003906 31.070312 14.15625 30.96875 C 13.824219 31.871094 14.679688 32.875 14.507812 33.789062 C 15.027344 33.363281 14.953125 34.207031 15.15625 34.472656 C 15.164062 34.640625 15.019531 34.699219 14.890625 34.675781 C 15.113281 35.289062 15.191406 35.613281 15.269531 36.40625 C 15.4375 36.738281 15.78125 36.730469 15.824219 37.171875 C 15.488281 37.566406 16.078125 38.042969 16.105469 38.496094 C 16.40625 38.265625 16.875 38.664062 16.882812 39.117188 L 16.363281 39.183594 C 17.148438 40.351562 17.609375 42.371094 18.863281 43.335938 L 18.652344 43.589844 C 19.710938 44.785156 20.164062 46.328125 21.453125 47.316406 C 21.53125 47.75 21.804688 48.355469 22.027344 48.699219 C 22.546875 49.023438 22.640625 49.199219 23.1875 49.277344 C 23.324219 49.429688 23.203125 49.667969 23.160156 49.796875 C 23.503906 50.402344 23.5625 51.210938 24.296875 51.367188 L 24.109375 51.535156 C 24.65625 51.835938 25.417969 52.242188 25.613281 52.910156 C 25.90625 52.890625 26.398438 53.292969 26.417969 52.882812 C 26.621094 53.027344 26.210938 53.292969 26.578125 53.292969 L 26.152344 53.367188 C 27.082031 54.46875 28.132812 55.183594 29.433594 55.789062 C 29.289062 55.910156 30.132812 56.25 30.363281 56.128906 C 30.6875 56.078125 30.960938 55.941406 31.125 55.808594 C 31.527344 55.527344 31.808594 55.191406 32.191406 55.003906 C 32.386719 54.519531 33.175781 54.171875 32.996094 53.546875 L 33.199219 53.703125 C 33.636719 53.265625 34.148438 52.644531 34.738281 52.097656 C 35.070312 51.773438 34.773438 51.542969 34.882812 51.1875 L 35.105469 51.324219 C 35.214844 50.90625 34.953125 50.589844 34.832031 50.324219 C 35.148438 50.179688 35.019531 50.054688 35.328125 49.898438 C 35.285156 50.214844 35.363281 50.574219 35.523438 50.9375 C 35.898438 50.605469 35.636719 49.832031 36.128906 49.804688 C 36.429688 49.523438 36.515625 49.210938 36.292969 49.003906 C 36.378906 49.03125 36.566406 48.894531 36.574219 49.125 C 36.730469 48.867188 36.804688 48.6875 36.78125 48.457031 C 36.746094 48.511719 36.667969 48.550781 36.652344 48.613281 C 36.507812 48.347656 36.667969 48.101562 36.308594 47.964844 C 36.320312 48.144531 36.371094 48.1875 36.242188 48.332031 C 36.054688 48.117188 36.242188 47.65625 36.515625 47.667969 C 36.832031 47.675781 36.71875 48.1875 36.984375 48.066406 C 36.941406 47.75 36.890625 47.425781 36.832031 47.113281 C 36.824219 47.292969 36.59375 47.394531 36.429688 47.222656 L 36.414062 47.589844 L 36.183594 47.4375 C 35.992188 47.957031 35.566406 48.125 35.445312 48.714844 L 35.796875 48.6875 C 35.636719 48.980469 35.773438 49.464844 35.320312 49.53125 C 35.320312 49.355469 35.140625 49.363281 35.011719 49.277344 C 35.011719 49.371094 35.054688 49.5 34.96875 49.550781 L 34.730469 49.242188 C 35.011719 49.679688 34.34375 50.027344 34.34375 50.1875 L 34.300781 50.09375 C 33.859375 50.367188 34.566406 50.179688 34.386719 50.453125 C 34.164062 50.640625 33.910156 50.230469 33.59375 50.316406 C 33.320312 50.710938 33.089844 51.605469 32.449219 51.785156 C 32.234375 52.167969 32.054688 52.636719 31.945312 53.070312 C 31.679688 53.351562 31.59375 52.722656 31.492188 53.148438 C 31.398438 53.003906 31.234375 52.917969 31.097656 52.832031 C 31.160156 52.925781 30.988281 53.0625 30.917969 53.179688 C 30.929688 53.191406 30.917969 53.199219 30.917969 53.199219 C 30.917969 53.199219 30.917969 53.191406 30.917969 53.179688 C 30.917969 53.191406 30.910156 53.199219 30.910156 53.199219 C 30.824219 53.222656 30.441406 53.140625 30.183594 53.019531 C 30.140625 53.078125 30.125 53.121094 30.109375 53.164062 C 30.398438 53.179688 30.824219 53.265625 30.902344 53.207031 C 30.886719 53.273438 30.917969 53.34375 31.097656 53.378906 C 30.824219 53.566406 30.476562 53.8125 30.234375 53.984375 C 30.398438 54.058594 30.558594 54.160156 30.457031 54.152344 C 30.363281 54.128906 30.269531 54.085938 30.175781 54.035156 C 30.089844 54.101562 30.023438 54.160156 29.996094 54.1875 C 29.988281 54.179688 29.917969 54 29.859375 53.855469 C 29.722656 54.085938 29.824219 54.171875 29.621094 54.382812 C 29.535156 54.382812 29.347656 54.425781 29.261719 54.332031 C 29.398438 54.035156 29.714844 53.660156 29.398438 53.378906 C 29.644531 53.191406 29.78125 53.410156 29.894531 53.496094 C 29.886719 53.554688 29.894531 53.609375 29.917969 53.648438 C 29.929688 53.609375 29.945312 53.566406 29.960938 53.53125 C 29.988281 53.53125 30.011719 53.503906 30.039062 53.453125 C 30.023438 53.453125 30.003906 53.453125 29.988281 53.453125 C 30.003906 53.394531 30.023438 53.335938 30.046875 53.285156 C 30.082031 53.257812 30.089844 53.222656 30.109375 53.179688 C 30.097656 53.179688 30.089844 53.179688 30.089844 53.179688 C 30.109375 53.140625 30.117188 53.105469 30.132812 53.0625 C 30.097656 53.097656 30.074219 53.140625 30.046875 53.179688 C 29.953125 53.179688 29.886719 53.191406 29.859375 53.214844 C 29.757812 53.242188 29.707031 53.257812 29.765625 53.328125 C 29.800781 53.328125 29.84375 53.328125 29.886719 53.328125 C 29.917969 53.328125 29.945312 53.328125 29.972656 53.316406 C 29.953125 53.359375 29.929688 53.410156 29.917969 53.453125 C 29.910156 53.453125 29.910156 53.453125 29.902344 53.453125 C 29.835938 53.402344 29.792969 53.359375 29.765625 53.328125 C 29.296875 53.292969 29.636719 52.703125 29.578125 52.628906 C 29.664062 52.628906 29.742188 52.679688 29.816406 52.679688 C 29.699219 52.371094 29.414062 52.550781 29.195312 52.304688 C 29.519531 51.824219 29.613281 52.59375 29.9375 52.386719 L 30.039062 51.9375 C 29.730469 51.605469 29.628906 52.210938 29.371094 51.765625 L 29.5625 51.65625 L 29.246094 51.535156 C 29.089844 51.691406 28.910156 51.960938 29.140625 52.125 C 28.628906 52.40625 28.902344 52.003906 28.511719 51.785156 C 28.175781 51.910156 28.664062 51.894531 28.449219 52.117188 C 28.28125 52.355469 28.046875 52.148438 27.851562 52.011719 C 27.597656 51.742188 27.972656 51.636719 28.023438 51.382812 C 28.109375 51.398438 28.332031 51.570312 28.175781 51.679688 C 28.722656 51.785156 28.527344 51.085938 28.894531 51.152344 C 28.800781 50.785156 28.542969 51.042969 28.339844 51 C 28.363281 51.101562 28.066406 51.179688 28.03125 51.304688 C 26.972656 51.441406 28.238281 50.605469 27.757812 50.273438 C 27.417969 50.734375 26.65625 50.171875 26.46875 50.886719 C 26.296875 50.835938 26.074219 50.785156 26.03125 50.625 C 26.425781 50.511719 26.101562 50.230469 26.554688 50.230469 L 26.425781 50.0625 L 26.972656 50.042969 C 27.03125 49.695312 26.988281 49.226562 27.058594 49.023438 C 26.742188 48.886719 26.828125 49.3125 26.535156 49.089844 C 26.765625 49.074219 26.765625 48.800781 26.664062 48.679688 C 26.734375 49.023438 26.238281 49.003906 26.050781 48.894531 C 25.851562 48.636719 26 48.230469 26.09375 48.210938 L 26.449219 48.261719 C 26.238281 48.21875 26.5625 48.09375 26.347656 47.980469 C 26.144531 48.050781 25.792969 48.117188 25.527344 48.203125 C 25.332031 48.09375 25.476562 47.8125 25.398438 47.777344 L 25.769531 47.914062 C 25.460938 47.613281 26.1875 47.511719 25.828125 47.230469 L 25.519531 47.308594 C 25.511719 47.214844 25.597656 47.105469 25.734375 47.113281 C 25.519531 47.171875 25.417969 46.941406 25.296875 46.898438 L 25.441406 46.769531 C 25.238281 46.695312 24.75 46.726562 24.957031 46.335938 C 24.65625 46.738281 25.074219 46.523438 25.066406 46.898438 C 24.886719 47.257812 24.632812 46.8125 24.546875 46.78125 C 24.972656 46.523438 24.324219 46.363281 24.210938 46.164062 C 24.289062 45.960938 24.308594 45.824219 24.347656 45.695312 L 24.035156 45.808594 C 24.539062 45.398438 23.675781 45.507812 23.707031 45.1875 C 23.949219 45.195312 24.152344 45.039062 24.136719 44.84375 C 23.84375 45.296875 23.425781 44.820312 23.1875 45.039062 C 23.101562 44.5625 23.761719 44.820312 23.980469 44.539062 C 23.546875 44.527344 23.929688 43.984375 23.445312 44.09375 C 23.488281 44.453125 23.152344 44.207031 22.941406 44.246094 C 22.761719 43.871094 23.152344 44.207031 23.160156 43.863281 C 23.015625 43.746094 22.589844 43.738281 22.597656 44.035156 C 22.5625 43.769531 22.035156 43.761719 22.152344 43.378906 C 22.359375 43.140625 22.53125 43.753906 22.632812 43.515625 C 22.375 43.003906 21.847656 43.625 21.496094 43.199219 C 21.46875 43.480469 20.898438 43.539062 20.617188 43.402344 C 20.4375 42.808594 20.898438 43.550781 21.121094 43.15625 L 20.949219 42.96875 C 21.25 42.421875 22.042969 43.175781 22.265625 42.6875 L 21.984375 42.550781 C 22.136719 42.535156 22.410156 42.476562 22.488281 42.3125 C 22.136719 42.433594 22.121094 41.828125 22.015625 41.828125 C 21.726562 41.929688 22.195312 41.972656 21.964844 42.046875 C 21.761719 41.84375 21.257812 41.988281 21.214844 41.519531 C 21.511719 41.621094 21.539062 41.238281 21.734375 41.238281 C 21.742188 40.992188 21.386719 41.359375 21.394531 41.007812 L 21.574219 40.949219 C 21.027344 39.867188 20.503906 38.886719 19.4375 38.324219 C 19.660156 38.050781 19.566406 37.726562 19.582031 37.164062 C 19.566406 37.410156 19.292969 37.285156 19.207031 37.171875 L 19.453125 36.824219 C 19.53125 36.484375 19.113281 36.199219 18.839844 35.988281 C 18.890625 35.917969 18.976562 35.878906 19.0625 35.835938 C 19.207031 35.511719 18.789062 35.621094 18.675781 35.542969 L 18.863281 35.304688 L 18.617188 35.339844 C 18.402344 35.117188 18.351562 34.742188 18.753906 34.675781 C 18.652344 34.589844 18.558594 34.503906 18.480469 34.667969 C 18.644531 34.335938 18.464844 33.601562 18.214844 33.148438 C 18.171875 33.40625 18.042969 33.414062 17.804688 33.480469 C 17.371094 33.507812 17.855469 33.355469 17.566406 33.210938 C 17.71875 33.167969 17.824219 32.910156 17.992188 33.125 C 18.378906 32.355469 17.78125 31.519531 17.730469 30.667969 C 17.632812 30.507812 17.574219 30.574219 17.457031 30.507812 C 17.796875 29.902344 17.242188 29.320312 17.335938 28.71875 C 17.183594 28.871094 16.652344 28.757812 16.601562 28.4375 C 16.207031 28.128906 17.070312 28.222656 17.234375 27.871094 C 17.054688 27.738281 16.960938 27.4375 16.96875 27.308594 L 17.027344 27.308594 C 16.8125 27.140625 16.660156 26.851562 16.796875 26.59375 L 16.824219 26.628906 C 16.832031 26.433594 17.019531 26.183594 16.96875 25.988281 C 16.625 25.945312 16.761719 25.425781 16.464844 25.351562 C 16.5 25.324219 16.523438 25.351562 16.59375 25.289062 L 16.308594 25.308594 L 16.414062 24.890625 C 16.53125 24.964844 16.660156 24.964844 16.746094 25.070312 C 16.882812 24.617188 16.472656 24.957031 16.292969 24.753906 C 16.054688 24.480469 16.328125 24.453125 16.429688 24.308594 C 16.574219 24.402344 16.386719 24.53125 16.445312 24.589844 C 16.6875 24.726562 16.515625 24.402344 16.667969 24.371094 C 16.667969 24.308594 16.335938 24.328125 16.378906 24.113281 C 16.394531 23.933594 16.257812 23.535156 16.566406 23.558594 C 16.394531 23.421875 16.421875 23.246094 16.277344 23.132812 C 16.226562 23.277344 16.164062 23.550781 15.976562 23.601562 C 15.933594 23.472656 15.832031 23.210938 15.96875 23.160156 L 16.054688 23.261719 C 15.976562 23.160156 16.046875 22.765625 15.773438 22.980469 L 16.148438 22.691406 C 15.917969 22.589844 15.925781 22.316406 15.875 22.078125 C 16.183594 22.066406 16.53125 22.246094 16.601562 21.828125 L 16.300781 21.460938 C 16.277344 21.265625 16.351562 21.222656 16.53125 21.257812 C 16.730469 20.628906 15.722656 20.535156 16.027344 20.03125 C 16.378906 20.285156 16.421875 20.109375 16.550781 19.886719 C 16.488281 19.867188 16.371094 19.835938 16.371094 19.742188 C 16.191406 19.785156 16.609375 19.902344 16.34375 20.054688 C 16.113281 20.089844 16.214844 19.828125 16.15625 19.714844 C 16.984375 19.355469 16.558594 18.222656 17.097656 17.574219 C 16.644531 17.523438 17.046875 17.226562 16.925781 17.046875 C 17.371094 17.210938 16.941406 16.621094 17.277344 16.511719 L 16.804688 16.492188 C 17.199219 16.144531 16.363281 15.5625 16.984375 15.480469 C 17.207031 15.28125 17.265625 15.667969 17.300781 15.785156 C 17.882812 15.640625 17.234375 14.769531 17.863281 14.738281 C 17.710938 14.636719 17.386719 14.609375 17.359375 14.269531 C 17.632812 14.113281 18.078125 13.824219 18.128906 13.894531 C 18.136719 13.679688 18.027344 13.5625 18.285156 13.46875 C 18.378906 13.542969 18.34375 13.628906 18.359375 13.707031 C 18.632812 13.5 18.582031 13.160156 18.617188 12.84375 C 18.992188 12.894531 19.1875 12.367188 19.566406 12.257812 C 19.421875 11.820312 20.09375 12.027344 19.753906 11.582031 C 19.789062 11.632812 19.863281 11.660156 19.898438 11.667969 C 19.890625 11.457031 19.769531 11.105469 19.914062 10.988281 L 20.078125 11.3125 C 20.316406 11.710938 20.53125 11.113281 20.691406 11.277344 C 20.410156 11.089844 20.855469 11.175781 20.734375 10.933594 L 20.863281 10.738281 C 21.121094 10.5 20.8125 10.558594 21.171875 10.320312 C 21.386719 10.195312 21.417969 10.671875 21.332031 10.664062 C 21.597656 10.757812 21.742188 10.570312 21.90625 10.425781 C 21.820312 10.457031 21.777344 10.457031 21.828125 10.347656 C 21.855469 10.390625 21.878906 10.40625 21.914062 10.414062 C 21.972656 10.355469 22.042969 10.304688 22.109375 10.269531 C 22.109375 10.277344 22.109375 10.289062 22.109375 10.296875 C 22.035156 10.347656 21.964844 10.390625 21.914062 10.414062 C 21.972656 10.433594 22.050781 10.398438 22.136719 10.371094 C 22.152344 10.390625 22.171875 10.382812 22.195312 10.355469 C 22.265625 10.339844 22.324219 10.332031 22.382812 10.371094 L 22.417969 10.652344 C 22.554688 10.628906 22.847656 10.203125 22.804688 10.082031 C 23.417969 10.132812 24.339844 9.757812 24.726562 9.539062 C 24.65625 9.613281 24.65625 9.707031 24.726562 9.597656 C 24.921875 9.511719 25.125 9.230469 25.167969 9.410156 C 25.367188 9.273438 25.382812 9.589844 25.699219 9.582031 C 25.707031 9.621094 25.714844 9.433594 25.683594 9.359375 C 26.238281 9.65625 26.859375 8.984375 27.519531 9.214844 C 27.46875 9.230469 27.398438 9.402344 27.347656 9.496094 C 27.84375 9.351562 28.3125 9.214844 28.773438 8.882812 C 28.722656 9.007812 28.742188 9.128906 28.621094 9.207031 C 28.972656 9.207031 29.371094 9.136719 29.550781 8.882812 C 29.3125 8.734375 29.527344 9.035156 29.371094 9.015625 C 29.125 8.761719 29.59375 8.507812 29.824219 8.589844 L 29.824219 8.652344 C 30.183594 8.660156 30.210938 8.507812 30.558594 8.523438 C 30.765625 8.703125 30.371094 8.589844 30.441406 8.777344 C 30.492188 9.230469 31.226562 9.128906 31.296875 9.179688 C 31.390625 9.085938 31.515625 9.015625 31.507812 8.898438 C 31.800781 8.804688 31.609375 9.171875 31.808594 9.171875 L 32.652344 8.414062 C 32.609375 8.53125 32.859375 8.820312 32.609375 8.949219 C 33.191406 8.957031 33.585938 8.472656 33.984375 8.234375 C 34.148438 8.335938 34.738281 8.214844 34.953125 8.25 C 35.011719 8.507812 34.78125 8.199219 34.710938 8.378906 L 34.960938 8.71875 C 34.574219 8.675781 34.933594 9.152344 34.703125 9.28125 C 35.019531 9.171875 35.679688 9.496094 36.046875 9.726562 C 35.933594 9.121094 36.695312 9.683594 36.847656 9.273438 C 37.386719 9.417969 36.933594 9.726562 37.078125 9.894531 C 37.644531 9.988281 38.035156 10.363281 38.460938 10.628906 C 38.460938 10.628906 38.429688 10.679688 38.386719 10.695312 C 38.855469 10.839844 39.316406 11.4375 39.941406 11.480469 C 39.855469 11.53125 39.820312 11.625 39.683594 11.59375 C 39.914062 12.0625 40.179688 11.242188 40.386719 11.855469 L 40.121094 11.914062 C 40.539062 12.035156 40.417969 12.582031 40.964844 12.675781 C 40.871094 12.757812 40.785156 12.71875 40.691406 12.71875 C 41.007812 12.945312 41.207031 13.332031 41.65625 13.417969 C 41.5625 13.542969 41.425781 13.570312 41.246094 13.511719 C 41.308594 13.910156 41.8125 13.621094 41.871094 13.996094 C 41.90625 14.089844 41.835938 14.355469 41.792969 14.300781 C 42.066406 14.335938 42.308594 14.804688 42.46875 14.933594 C 42.359375 15.042969 42.382812 15.1875 42.332031 15.453125 C 43.160156 17.132812 43.726562 18.949219 44.417969 20.730469 C 44.007812 21.105469 44.058594 20.347656 43.777344 20.59375 C 44.160156 20.515625 43.957031 20.867188 44.144531 21.410156 L 44.085938 21.4375 C 44.1875 21.667969 43.9375 21.820312 44.085938 22.066406 L 44.1875 22.050781 C 44.476562 22.316406 43.707031 22.671875 44.210938 22.808594 L 43.929688 23.023438 C 44.390625 23.285156 43.792969 23.449219 44.179688 23.78125 L 44.09375 23.738281 C 43.886719 24.183594 44.554688 24.695312 44.1875 24.855469 C 44.246094 25.246094 44.296875 25.699219 44.648438 25.792969 C 44.503906 25.871094 44.296875 25.792969 44.179688 25.734375 C 44.261719 27.199219 43.929688 28.769531 44.085938 30.15625 C 43.992188 30.199219 43.957031 30.105469 43.886719 30.046875 C 44.09375 30.96875 42.980469 31.503906 43.570312 32.324219 L 43.828125 32.628906 C 43.648438 32.773438 43.425781 32.6875 43.273438 32.792969 C 43.433594 33.011719 43.09375 33.515625 43.347656 33.695312 C 43.195312 33.730469 43.195312 33.609375 43.101562 33.574219 C 42.921875 33.90625 43.246094 34.480469 43.023438 34.777344 L 42.921875 34.625 C 41.777344 36.210938 40.539062 38.265625 40.605469 39.941406 C 40.554688 40.378906 40.128906 39.941406 40.09375 40.121094 C 40.027344 41.820312 38.292969 43.097656 38.539062 44.792969 C 38.285156 45.996094 39.113281 46.746094 39.113281 46.746094 Z M 22.359375 10.160156 C 22.402344 10.101562 22.453125 10.058594 22.496094 10.058594 C 22.460938 10.082031 22.410156 10.117188 22.359375 10.160156 Z M 22.359375 10.160156 " fill-opacity="1" fill-rule="nonzero"/></g><path fill="#000000" d="M 34.746094 49.261719 C 34.730469 49.226562 34.703125 49.199219 34.679688 49.167969 Z M 34.746094 49.261719 " fill-opacity="1" fill-rule="nonzero"/><path fill="#000000" d="M 27.355469 9.546875 C 27.339844 9.554688 27.324219 9.554688 27.296875 9.5625 C 27.296875 9.640625 27.324219 9.613281 27.355469 9.546875 Z M 27.355469 9.546875 " fill-opacity="1" fill-rule="nonzero"/><path fill="#000000" d="M 36.8125 47.011719 C 36.824219 47.050781 36.832031 47.09375 36.839844 47.136719 C 36.839844 47.09375 36.839844 47.050781 36.8125 47.011719 Z M 36.8125 47.011719 " fill-opacity="1" fill-rule="nonzero"/><path fill="#000000" d="M 36.78125 48.382812 C 36.789062 48.417969 36.789062 48.441406 36.789062 48.476562 C 36.8125 48.441406 36.824219 48.417969 36.78125 48.382812 Z M 36.78125 48.382812 " fill-opacity="1" fill-rule="nonzero"/><path fill="#000000" d="M 28.21875 50.921875 C 28.253906 50.980469 28.296875 51.007812 28.347656 51.015625 C 28.339844 50.980469 28.304688 50.957031 28.21875 50.921875 Z M 28.21875 50.921875 " fill-opacity="1" fill-rule="nonzero"/><path fill="#000000" d="M 26.460938 48.253906 C 26.476562 48.253906 26.503906 48.261719 26.535156 48.261719 Z M 26.460938 48.253906 " fill-opacity="1" fill-rule="nonzero"/><path fill="#000000" d="M 37.769531 47.078125 C 37.625 46.96875 37.351562 47.011719 37.171875 46.949219 C 37.292969 47.300781 37.539062 47.078125 37.769531 47.078125 Z M 37.769531 47.078125 " fill-opacity="1" fill-rule="nonzero"/><path fill="#000000" d="M 27.722656 49.96875 C 27.980469 49.847656 27.460938 49.8125 27.5 49.644531 C 27.398438 49.839844 27.648438 49.898438 27.722656 49.96875 Z M 27.722656 49.96875 " fill-opacity="1" fill-rule="nonzero"/><path fill="#000000" d="M 26.261719 48.542969 C 26.347656 48.570312 26.332031 48.613281 26.355469 48.671875 L 26.511719 48.492188 C 26.441406 48.425781 26.261719 48.40625 26.261719 48.542969 Z M 26.261719 48.542969 " fill-opacity="1" fill-rule="nonzero"/><path fill="#000000" d="M 17.277344 16.417969 L 17.25 16.195312 L 17.113281 16.332031 Z M 17.277344 16.417969 " fill-opacity="1" fill-rule="nonzero"/><path fill="#000000" d="M 28.59375 9.820312 C 28.5625 9.792969 28.628906 9.511719 28.417969 9.613281 C 28.664062 9.589844 28.40625 9.828125 28.59375 9.820312 Z M 28.59375 9.820312 " fill-opacity="1" fill-rule="nonzero"/><path fill="#000000" d="M 36.660156 9.820312 L 36.71875 9.84375 L 36.832031 9.488281 Z M 36.660156 9.820312 " fill-opacity="1" fill-rule="nonzero"/><path fill="#000000" d="M 38.25 23.472656 C 38.0625 23.695312 38.308594 23.40625 38.386719 23.59375 C 38.515625 23.542969 38.402344 23.5 38.25 23.472656 Z M 38.25 23.472656 " fill-opacity="1" fill-rule="nonzero"/><path fill="#000000" d="M 20.820312 25.144531 C 20.8125 25.179688 20.839844 25.195312 20.898438 25.222656 C 20.898438 25.222656 20.898438 25.214844 20.90625 25.214844 C 20.882812 25.179688 20.855469 25.164062 20.820312 25.144531 Z M 20.820312 25.144531 " fill-opacity="1" fill-rule="nonzero"/><path fill="#000000" d="M 26.828125 32.28125 C 26.835938 32.261719 26.851562 32.246094 26.859375 32.230469 C 26.828125 32.230469 26.792969 32.21875 26.75 32.21875 Z M 26.828125 32.28125 " fill-opacity="1" fill-rule="nonzero"/><path fill="#000000" d="M 38.148438 24.464844 C 38.171875 24.472656 38.179688 24.488281 38.199219 24.496094 C 38.207031 24.488281 38.199219 24.480469 38.148438 24.464844 Z M 38.148438 24.464844 " fill-opacity="1" fill-rule="nonzero"/><path fill="#000000" d="M 24.855469 20.335938 C 24.855469 20.347656 24.855469 20.355469 24.855469 20.363281 C 24.929688 20.398438 24.90625 20.378906 24.855469 20.335938 Z M 24.855469 20.335938 " fill-opacity="1" fill-rule="nonzero"/><path fill="#000000" d="M 24.101562 22.109375 C 24.101562 22.101562 24.101562 22.101562 24.101562 22.101562 C 24.101562 22.101562 24.09375 22.101562 24.09375 22.101562 C 24.101562 22.101562 24.101562 22.101562 24.101562 22.109375 Z M 24.101562 22.109375 " fill-opacity="1" fill-rule="nonzero"/><path fill="#000000" d="M 37.539062 23.933594 L 37.625 23.984375 C 37.609375 23.960938 37.582031 23.945312 37.539062 23.933594 Z M 37.539062 23.933594 " fill-opacity="1" fill-rule="nonzero"/><path fill="#000000" d="M 39.300781 19.597656 C 39.027344 19.203125 38.632812 18.753906 38.539062 18.316406 C 37.582031 16.917969 36.703125 14.992188 34.789062 14.414062 C 34.816406 14.574219 34.636719 14.710938 34.523438 14.71875 L 34.550781 14.609375 L 34.3125 14.78125 C 34.175781 14.746094 34.371094 14.464844 34.492188 14.480469 C 33.824219 14.15625 33.167969 14.0625 32.492188 13.824219 C 32.363281 14.191406 32.125 13.757812 32.019531 14.15625 C 32.003906 14.082031 32.039062 14.0625 32.074219 13.988281 C 31.550781 14.113281 31.550781 14.113281 31.148438 13.570312 C 29.21875 13.066406 27.289062 13.707031 25.546875 14.488281 C 23.820312 15.46875 22.65625 17.082031 21.820312 18.769531 C 22.214844 19.316406 21.804688 19.535156 22.152344 20.039062 L 21.984375 19.945312 C 22.128906 20.304688 21.8125 20.234375 21.46875 20.5 C 21.675781 20.578125 21.480469 20.644531 21.847656 20.710938 C 22.09375 20.917969 21.28125 20.753906 21.402344 20.984375 C 21.28125 20.960938 21.617188 21.035156 21.496094 21.046875 C 21.804688 21.597656 21.324219 20.898438 20.839844 21.394531 C 20.796875 22.273438 21.085938 23.117188 20.90625 23.902344 C 20.890625 23.851562 21.179688 23.816406 21.1875 23.890625 C 20.597656 23.996094 21.359375 24.148438 21.136719 24.292969 C 21.019531 24.292969 20.976562 24.234375 20.921875 24.199219 C 20.691406 24.582031 21.121094 24.839844 20.914062 25.214844 C 21.214844 25.484375 20.820312 25.972656 21.164062 26.117188 C 20.921875 26.132812 21.035156 26.3125 20.949219 26.414062 C 21.691406 26.414062 20.941406 27.121094 21.496094 27.234375 L 21.375 27.277344 C 21.777344 28.078125 22.1875 29.03125 23.035156 29.542969 C 23.417969 29.875 23.410156 30.753906 24.074219 30.917969 C 24.222656 30.90625 24.246094 30.738281 24.359375 30.746094 C 24.460938 30.847656 24.222656 30.90625 24.210938 31.011719 C 24.621094 30.949219 24.699219 31.46875 25.03125 31.648438 C 25.125 31.574219 25.230469 31.597656 25.289062 31.445312 C 25.382812 32.074219 26.179688 31.75 26.390625 32.238281 C 26.511719 31.625 26.734375 32.03125 26.921875 31.9375 C 26.980469 31.988281 26.9375 32.144531 26.871094 32.238281 C 27.175781 32.273438 27.324219 32.324219 27.621094 32.578125 C 27.800781 32.554688 27.929688 32.246094 28.089844 32.382812 C 28.117188 32.824219 28.484375 32.492188 28.648438 32.671875 C 28.664062 32.304688 28.9375 32.058594 29.097656 32.238281 L 28.980469 32.730469 C 29.605469 32.5 30.507812 33.082031 31.175781 32.382812 L 31.261719 32.671875 C 31.925781 32.238281 32.738281 32.441406 33.199219 31.648438 C 33.421875 31.734375 33.746094 31.734375 33.910156 31.640625 C 34.027344 31.300781 34.121094 31.28125 34.082031 30.855469 C 34.148438 30.796875 34.3125 30.984375 34.386719 31.050781 C 34.679688 30.96875 35.171875 31.164062 35.113281 30.625 L 35.269531 30.832031 C 35.328125 30.464844 35.40625 30.03125 35.796875 30.070312 C 35.710938 29.851562 35.839844 29.601562 35.558594 29.46875 C 35.59375 29.355469 35.890625 29.738281 35.789062 29.46875 L 35.96875 29.808594 C 36.488281 29.476562 36.703125 28.9375 36.875 28.375 C 37.335938 28.503906 37.15625 27.90625 37.515625 27.761719 C 37.410156 27.488281 37.863281 27.34375 37.4375 26.976562 L 37.667969 27.082031 C 37.8125 26.867188 37.949219 26.558594 38.171875 26.277344 C 38.308594 26.117188 37.949219 25.996094 37.875 25.820312 L 38.121094 25.886719 C 38.011719 25.683594 37.644531 25.539062 37.410156 25.417969 C 37.609375 25.351562 37.4375 25.289062 37.632812 25.222656 C 37.746094 25.367188 37.984375 25.527344 38.292969 25.699219 C 38.453125 25.519531 37.875 25.179688 38.285156 25.144531 C 38.402344 25 38.324219 24.855469 38.035156 24.777344 C 38.121094 24.789062 38.222656 24.710938 38.335938 24.804688 C 38.34375 24.675781 38.324219 24.601562 38.207031 24.507812 C 38.199219 24.53125 38.15625 24.558594 38.164062 24.582031 C 37.917969 24.488281 37.949219 24.378906 37.566406 24.351562 C 37.660156 24.421875 37.71875 24.4375 37.675781 24.507812 C 37.410156 24.4375 37.371094 24.242188 37.617188 24.226562 C 37.898438 24.191406 38.042969 24.414062 38.214844 24.328125 L 37.644531 23.984375 C 37.703125 24.054688 37.546875 24.105469 37.335938 24.0625 L 37.496094 24.199219 L 37.222656 24.164062 C 37.300781 24.378906 36.992188 24.472656 37.179688 24.710938 L 37.472656 24.675781 C 37.464844 24.796875 37.832031 25.007812 37.472656 25.050781 C 37.386719 24.976562 37.234375 24.984375 37.085938 24.949219 C 37.128906 24.984375 37.234375 25.042969 37.179688 25.058594 L 36.832031 24.941406 C 37.273438 25.109375 36.882812 25.273438 36.960938 25.339844 L 36.882812 25.296875 C 36.644531 25.410156 37.148438 25.339844 37.121094 25.460938 C 37.019531 25.539062 36.617188 25.351562 36.402344 25.382812 C 36.359375 25.539062 36.601562 25.945312 36.191406 25.988281 C 36.199219 26.152344 36.285156 26.371094 36.421875 26.601562 C 36.359375 26.730469 35.984375 26.363281 36.113281 26.59375 C 35.96875 26.5 35.804688 26.433594 35.660156 26.363281 C 35.824219 26.464844 35.507812 26.558594 35.941406 26.679688 C 35.753906 26.800781 35.625 26.96875 35.574219 27.183594 C 35.59375 27.105469 35.351562 26.925781 35.191406 26.882812 C 35.378906 27.121094 35.421875 27.363281 35.25 27.445312 C 35.5 27.644531 35.53125 27.589844 35.761719 27.796875 C 35.789062 27.847656 35.867188 27.976562 35.824219 27.992188 C 35.558594 27.804688 35.183594 27.488281 35.0625 27.589844 C 34.703125 27.234375 35.277344 27.4375 34.839844 27.175781 C 34.566406 26.867188 34.679688 26.671875 34.917969 26.773438 C 34.636719 26.433594 34.816406 26.816406 34.492188 26.550781 C 34.457031 26.652344 34.609375 26.824219 34.558594 27.003906 C 34.722656 27.140625 34.789062 27.113281 34.875 27.292969 C 35.105469 27.703125 34.5 27.234375 34.464844 27.242188 L 34.429688 27.113281 C 34.25 27.089844 34.449219 27.308594 34.363281 27.371094 C 33.917969 26.988281 34.421875 27.199219 34.183594 26.933594 L 33.824219 26.707031 C 33.6875 26.773438 34.148438 27.054688 33.933594 27.0625 L 33.796875 26.902344 L 33.832031 27.0625 C 33.984375 27.214844 34.234375 27.4375 34.257812 27.335938 C 34.628906 27.769531 34.269531 27.457031 34.234375 27.625 C 34.421875 27.890625 34.257812 27.566406 34.480469 27.789062 C 34.695312 27.984375 34.617188 28.0625 34.601562 28.15625 C 34.507812 28.238281 34.320312 27.941406 34.140625 27.820312 C 34.121094 27.769531 34.15625 27.675781 34.277344 27.8125 C 34.15625 27.480469 33.78125 27.371094 33.695312 27.140625 C 33.5 27.070312 33.753906 27.34375 33.78125 27.464844 C 33.832031 27.464844 33.976562 27.710938 34.070312 27.777344 C 34.492188 28.5625 33.574219 27.394531 33.535156 27.609375 C 33.917969 28.007812 33.808594 28.367188 34.285156 28.769531 C 34.300781 28.878906 34.328125 29.015625 34.25 29.007812 C 34.070312 28.664062 34.003906 28.828125 33.875 28.476562 L 33.816406 28.519531 L 33.636719 28.09375 C 33.421875 27.933594 33.191406 27.796875 33.0625 27.660156 C 33.082031 27.839844 33.285156 27.941406 33.25 28.078125 C 33.175781 27.898438 33.03125 27.789062 32.996094 27.820312 C 33.148438 27.898438 33.285156 28.265625 33.277344 28.382812 C 33.191406 28.445312 32.953125 28.179688 32.917969 28.09375 L 32.832031 27.769531 C 32.917969 28.042969 32.730469 27.660156 32.738281 27.796875 C 32.824219 27.984375 32.953125 28.289062 33.054688 28.53125 C 33.046875 28.648438 32.875 28.417969 32.875 28.46875 L 32.859375 28.230469 C 32.789062 28.359375 32.558594 27.738281 32.523438 27.914062 L 32.628906 28.1875 C 32.585938 28.15625 32.515625 28.042969 32.492188 27.933594 C 32.566406 28.128906 32.484375 28.121094 32.492188 28.207031 L 32.398438 28.035156 C 32.40625 28.171875 32.515625 28.597656 32.3125 28.273438 C 32.542969 28.675781 32.371094 28.25 32.535156 28.402344 C 32.730469 28.691406 32.585938 28.734375 32.585938 28.792969 C 32.398438 28.34375 32.441406 28.8125 32.363281 28.828125 C 32.261719 28.675781 32.199219 28.605469 32.140625 28.519531 L 32.234375 28.835938 C 31.996094 28.25 32.15625 29.023438 32.019531 28.863281 C 31.996094 28.65625 31.910156 28.417969 31.832031 28.351562 C 32.046875 28.777344 31.910156 28.957031 32.019531 29.253906 C 31.832031 29.125 31.875 28.664062 31.738281 28.359375 C 31.78125 28.726562 31.542969 28.164062 31.628906 28.632812 C 31.757812 28.75 31.695312 28.929688 31.722656 29.132812 C 31.59375 29.132812 31.6875 28.929688 31.570312 28.785156 C 31.535156 28.863281 31.550781 29.238281 31.664062 29.347656 C 31.570312 29.261719 31.578125 29.738281 31.433594 29.46875 C 31.335938 29.1875 31.558594 29.304688 31.464844 29.101562 C 31.285156 29.101562 31.527344 29.832031 31.355469 29.960938 C 31.457031 30.105469 31.472656 30.636719 31.398438 30.832031 C 31.148438 30.738281 31.464844 30.636719 31.320312 30.277344 L 31.242188 30.34375 C 31.066406 29.84375 31.347656 29.457031 31.175781 29.058594 L 31.125 29.246094 C 31.125 29.09375 31.097656 28.828125 31.046875 28.691406 C 31.082031 29.058594 30.894531 28.8125 30.894531 28.894531 C 30.910156 29.203125 30.945312 28.800781 30.960938 29.039062 C 30.894531 29.132812 30.910156 29.65625 30.757812 29.46875 C 30.808594 29.253906 30.695312 29.050781 30.714844 28.878906 C 30.644531 28.75 30.722656 29.246094 30.621094 29.074219 L 30.621094 28.894531 C 30.296875 28.871094 29.945312 28.878906 29.5625 29.601562 C 29.542969 29.289062 29.433594 29.246094 29.3125 29.007812 C 29.363281 29.117188 29.261719 29.320312 29.210938 29.347656 L 29.195312 28.988281 C 29.140625 28.777344 28.953125 29.066406 28.816406 29.238281 C 28.816406 29.167969 28.835938 29.074219 28.859375 28.980469 C 28.835938 28.734375 28.722656 29.152344 28.664062 29.21875 L 28.679688 28.964844 L 28.605469 29.195312 C 28.476562 29.3125 28.375 29.210938 28.519531 28.835938 C 28.46875 28.894531 28.40625 28.957031 28.40625 29.082031 C 28.398438 28.828125 28.183594 28.75 27.988281 28.820312 C 28.015625 28.9375 27.964844 29.050781 27.878906 29.289062 C 27.691406 29.671875 27.871094 29.203125 27.714844 29.398438 C 27.773438 29.253906 27.773438 29.074219 27.894531 29 C 27.9375 28.402344 27.476562 28.699219 27.304688 28.445312 C 27.230469 28.46875 27.203125 28.539062 27.125 28.625 C 27.210938 28.179688 26.792969 28.445312 26.757812 28.171875 C 26.683594 28.332031 26.339844 28.699219 26.238281 28.640625 C 25.921875 28.84375 26.503906 28.222656 26.554688 28 C 26.410156 28.09375 26.316406 28.0625 26.296875 28.019531 L 26.339844 27.976562 C 26.167969 28.078125 26.023438 28.085938 26.074219 27.914062 L 26.101562 27.90625 C 26.074219 27.839844 26.179688 27.644531 26.117188 27.617188 C 25.863281 27.832031 25.90625 27.566406 25.664062 27.746094 C 25.691406 27.710938 25.714844 27.710938 25.75 27.644531 L 25.484375 27.820312 L 25.511719 27.617188 C 25.613281 27.566406 25.707031 27.488281 25.785156 27.464844 C 25.835938 27.234375 25.5625 27.601562 25.398438 27.652344 C 25.179688 27.710938 25.390625 27.53125 25.453125 27.421875 C 25.589844 27.363281 25.453125 27.515625 25.503906 27.496094 C 25.707031 27.394531 25.535156 27.394531 25.65625 27.292969 C 25.648438 27.277344 25.382812 27.488281 25.390625 27.386719 C 25.382812 27.320312 25.222656 27.25 25.476562 27.082031 C 25.316406 27.140625 25.304688 27.070312 25.167969 27.121094 C 25.152344 27.191406 25.144531 27.320312 25 27.445312 C 24.9375 27.429688 24.820312 27.402344 24.914062 27.308594 L 25 27.292969 C 24.914062 27.308594 24.90625 27.140625 24.71875 27.363281 L 24.980469 27.054688 C 24.769531 27.15625 24.726562 27.0625 24.640625 27.019531 C 24.90625 26.851562 25.222656 26.714844 25.210938 26.558594 L 24.878906 26.621094 C 24.820312 26.578125 24.871094 26.535156 25.03125 26.449219 C 25.066406 26.195312 24.171875 26.664062 24.324219 26.363281 C 24.691406 26.269531 24.691406 26.195312 24.75 26.082031 C 24.691406 26.109375 24.582031 26.152344 24.554688 26.132812 C 24.410156 26.226562 24.800781 26.066406 24.605469 26.226562 C 24.410156 26.347656 24.433594 26.226562 24.347656 26.226562 C 24.992188 25.757812 24.324219 25.664062 24.589844 25.308594 C 24.171875 25.460938 24.425781 25.246094 24.265625 25.238281 C 24.71875 25.128906 24.152344 25.128906 24.410156 24.984375 L 23.972656 25.136719 C 24.195312 24.921875 23.238281 25.035156 23.742188 24.8125 C 23.863281 24.695312 24.074219 24.777344 24.160156 24.796875 C 24.613281 24.589844 23.707031 24.546875 24.238281 24.371094 C 24.058594 24.386719 23.761719 24.472656 23.582031 24.378906 C 23.761719 24.257812 23.972656 24.070312 24.066406 24.078125 C 23.972656 24.019531 23.828125 24.011719 23.992188 23.917969 C 24.109375 23.917969 24.128906 23.945312 24.179688 23.96875 C 24.289062 23.839844 24.085938 23.765625 23.914062 23.660156 C 24.246094 23.585938 24.074219 23.378906 24.28125 23.253906 C 23.855469 23.160156 24.460938 23.046875 23.90625 23.003906 C 23.964844 23.015625 24.035156 22.996094 24.066406 22.996094 C 23.914062 22.9375 23.554688 22.859375 23.539062 22.785156 L 23.898438 22.84375 C 24.347656 22.902344 24.015625 22.671875 24.246094 22.683594 C 23.929688 22.691406 24.265625 22.613281 23.992188 22.570312 L 23.886719 22.476562 C 23.8125 22.339844 23.707031 22.433594 23.683594 22.265625 C 23.675781 22.171875 24.101562 22.316406 24.050781 22.332031 C 24.246094 22.296875 24.152344 22.203125 24.09375 22.121094 C 24.085938 22.144531 24.058594 22.152344 23.992188 22.109375 C 24.042969 22.121094 24.066406 22.121094 24.085938 22.109375 C 24.058594 22.078125 24.042969 22.042969 24.050781 22.015625 C 24.058594 22.015625 24.066406 22.015625 24.066406 22.027344 C 24.085938 22.058594 24.09375 22.09375 24.09375 22.109375 C 24.128906 22.101562 24.136719 22.078125 24.152344 22.042969 C 24.179688 22.042969 24.179688 22.035156 24.160156 22.015625 C 24.179688 21.992188 24.195312 21.972656 24.246094 21.972656 L 24.519531 22.058594 C 24.546875 22.015625 24.265625 21.796875 24.144531 21.761719 C 24.417969 21.625 24.359375 21.257812 24.253906 21.054688 C 24.308594 21.105469 24.390625 21.140625 24.308594 21.078125 C 24.273438 20.984375 24.09375 20.816406 24.265625 20.882812 C 24.1875 20.773438 24.476562 20.898438 24.546875 20.824219 C 24.589844 20.839844 24.425781 20.753906 24.347656 20.730469 C 24.75 20.722656 24.253906 20.203125 24.640625 20.148438 C 24.5625 20.125 24.742188 20.269531 24.828125 20.347656 C 24.792969 20.132812 24.769531 19.929688 24.582031 19.597656 C 24.675781 19.679688 24.777344 19.75 24.820312 19.828125 C 24.886719 19.722656 24.914062 19.570312 24.734375 19.367188 C 24.582031 19.355469 24.855469 19.46875 24.8125 19.503906 C 24.554688 19.425781 24.445312 19.136719 24.546875 19.109375 L 24.597656 19.144531 C 24.675781 19.035156 24.546875 18.921875 24.632812 18.820312 C 24.8125 18.863281 24.648438 18.921875 24.800781 19.015625 C 25.167969 19.289062 25.210938 18.992188 25.273438 19.007812 C 25.222656 18.921875 25.195312 18.835938 25.101562 18.753906 C 25.085938 18.597656 25.324219 18.90625 25.359375 18.835938 C 25.210938 18.574219 25.085938 18.308594 24.964844 18.042969 C 25.042969 18.136719 25.296875 18.257812 25.339844 18.429688 C 25.453125 18.25 25.195312 17.761719 25.125 17.449219 C 25.222656 17.457031 25.296875 17.183594 25.347656 17.117188 C 25.527344 17.285156 25.289062 17.140625 25.382812 17.304688 L 25.648438 17.457031 C 25.554688 17.574219 25.921875 17.789062 25.964844 17.976562 C 25.964844 17.789062 26.273438 17.746094 26.460938 17.738281 C 26.074219 17.355469 26.519531 17.40625 26.273438 17.011719 C 26.410156 16.835938 26.554688 17.285156 26.664062 17.335938 C 26.75 17.0625 27.007812 17.105469 27.152344 16.96875 C 27.152344 16.96875 27.175781 17.03125 27.1875 17.0625 C 27.28125 16.84375 27.597656 16.886719 27.628906 16.425781 C 27.65625 16.519531 27.699219 16.59375 27.679688 16.679688 C 27.910156 16.773438 27.519531 16.101562 27.828125 16.289062 L 27.851562 16.527344 C 27.910156 16.261719 28.167969 16.648438 28.226562 16.261719 C 28.261719 16.382812 28.246094 16.433594 28.238281 16.5 C 28.347656 16.367188 28.519531 16.375 28.578125 16.042969 C 28.628906 16.179688 28.636719 16.3125 28.605469 16.433594 C 28.773438 16.570312 28.671875 16 28.835938 16.125 C 28.878906 16.136719 28.980469 16.324219 28.960938 16.332031 C 28.988281 16.117188 29.195312 16.101562 29.261719 16.007812 C 29.296875 16.152344 29.355469 16.195312 29.449219 16.339844 C 30.167969 16.28125 30.851562 16.382812 31.644531 16.109375 C 31.671875 16.585938 31.421875 16.375 31.441406 16.699219 C 31.507812 16.304688 31.578125 16.59375 31.808594 16.519531 L 31.800781 16.578125 C 31.910156 16.519531 31.894531 16.773438 32.019531 16.679688 L 32.046875 16.578125 C 32.226562 16.355469 32.125 17.132812 32.320312 16.65625 L 32.304688 16.953125 C 32.542969 16.5625 32.40625 17.140625 32.644531 16.824219 L 32.601562 16.894531 C 32.679688 17.132812 33.125 16.554688 33.039062 16.917969 C 33.199219 16.917969 33.386719 16.910156 33.566406 16.605469 C 33.542969 16.742188 33.421875 16.917969 33.355469 17.023438 C 33.945312 17.097656 34.386719 17.515625 35.097656 17.457031 C 35.070312 17.535156 35.003906 17.558594 34.941406 17.609375 C 35.464844 17.515625 35.121094 18.351562 35.847656 17.960938 L 36.148438 17.789062 C 36.105469 17.941406 35.933594 18.097656 35.890625 18.214844 C 36.097656 18.113281 36.140625 18.394531 36.386719 18.230469 C 36.308594 18.34375 36.242188 18.335938 36.164062 18.394531 C 36.214844 18.546875 36.695312 18.394531 36.703125 18.582031 L 36.558594 18.632812 C 36.59375 19.605469 36.566406 20.507812 37.445312 20.824219 C 37.625 20.933594 37.0625 21.035156 37.121094 21.085938 C 37.917969 21.515625 37.113281 22.402344 38.09375 22.859375 C 38.359375 23.296875 39.429688 23.464844 39.429688 23.464844 C 39.09375 22.195312 39.335938 21.085938 39.300781 19.597656 Z M 24 21.8125 C 24.007812 21.828125 24.015625 21.855469 24.023438 21.878906 C 24 21.847656 23.980469 21.820312 24 21.8125 Z M 24 21.8125 " fill-opacity="1" fill-rule="nonzero"/><path fill="#000000" d="M 33.722656 27.523438 C 33.738281 27.515625 33.738281 27.496094 33.738281 27.472656 C 33.730469 27.464844 33.722656 27.480469 33.722656 27.523438 Z M 33.722656 27.523438 " fill-opacity="1" fill-rule="nonzero"/><path fill="#000000" d="M 35.625 26.371094 C 35.609375 26.363281 35.582031 26.347656 35.550781 26.339844 C 35.574219 26.355469 35.601562 26.363281 35.625 26.371094 Z M 35.625 26.371094 " fill-opacity="1" fill-rule="nonzero"/><path fill="#000000" d="M 35.226562 26.074219 C 35.242188 26.117188 35.269531 26.160156 35.308594 26.195312 C 35.351562 26.195312 35.34375 26.167969 35.226562 26.074219 Z M 35.226562 26.074219 " fill-opacity="1" fill-rule="nonzero"/><path fill="#000000" d="M 35.132812 26.238281 C 35.027344 26.203125 34.890625 26.066406 34.839844 26.089844 C 35.011719 26.246094 35.363281 26.355469 35.507812 26.320312 C 35.523438 26.332031 35.53125 26.332031 35.550781 26.339844 C 35.457031 26.289062 35.371094 26.246094 35.320312 26.195312 C 35.242188 26.203125 35.003906 26.109375 35.132812 26.238281 Z M 35.132812 26.238281 " fill-opacity="1" fill-rule="nonzero"/><path fill="#000000" d="M 36.804688 24.949219 C 36.769531 24.941406 36.738281 24.921875 36.703125 24.914062 Z M 36.804688 24.949219 " fill-opacity="1" fill-rule="nonzero"/><path fill="#000000" d="M 37.820312 23.867188 C 38.085938 23.976562 38.207031 23.859375 38.421875 23.832031 C 38.242188 23.808594 38.019531 23.859375 37.820312 23.867188 Z M 37.820312 23.867188 " fill-opacity="1" fill-rule="nonzero"/><path fill="#000000" d="M 35.488281 26.125 C 35.386719 26.101562 35.523438 26.203125 35.523438 26.238281 C 35.558594 26.246094 35.703125 26.277344 35.644531 26.246094 C 35.574219 26.203125 35.488281 26.160156 35.488281 26.125 Z M 35.488281 26.125 " fill-opacity="1" fill-rule="nonzero"/><path fill="#000000" d="M 35.027344 26.382812 C 35.011719 26.457031 35.0625 26.652344 35.207031 26.765625 Z M 35.027344 26.382812 " fill-opacity="1" fill-rule="nonzero"/><path fill="#000000" d="M 34.269531 26.78125 C 34.207031 26.714844 34.183594 26.671875 34.105469 26.613281 C 34.0625 26.664062 34.113281 26.722656 34.269531 26.78125 Z M 34.269531 26.78125 " fill-opacity="1" fill-rule="nonzero"/><path fill="#000000" d="M 34.378906 27.039062 C 34.457031 27.082031 34.53125 27.113281 34.558594 27.082031 C 34.378906 26.910156 34.421875 27.039062 34.378906 27.039062 Z M 34.378906 27.039062 " fill-opacity="1" fill-rule="nonzero"/><path fill="#000000" d="M 34.378906 27.039062 C 34.363281 27.027344 34.355469 27.019531 34.335938 27.011719 C 34.363281 27.039062 34.371094 27.039062 34.378906 27.039062 Z M 34.378906 27.039062 " fill-opacity="1" fill-rule="nonzero"/><path fill="#000000" d="M 33.21875 27.566406 C 33.363281 27.710938 33.320312 27.558594 33.328125 27.53125 C 33.183594 27.300781 33.320312 27.660156 33.21875 27.566406 Z M 33.21875 27.566406 " fill-opacity="1" fill-rule="nonzero"/><path fill="#000000" d="M 33.03125 28.0625 L 32.894531 27.871094 C 32.875 27.898438 32.917969 28.035156 32.988281 28.085938 C 32.988281 28.035156 33.011719 28.0625 33.03125 28.0625 Z M 33.03125 28.0625 " fill-opacity="1" fill-rule="nonzero"/><path fill="#000000" d="M 24.1875 24.992188 L 24.367188 24.957031 L 24.265625 24.914062 Z M 24.1875 24.992188 " fill-opacity="1" fill-rule="nonzero"/><path fill="#000000" d="M 25.109375 20.074219 C 25.136719 19.988281 25.289062 20.191406 25.304688 20.132812 C 25.28125 20.132812 25.050781 19.953125 25.109375 20.074219 Z M 25.109375 20.074219 " fill-opacity="1" fill-rule="nonzero"/><path fill="#000000" d="M 26.597656 17.449219 L 26.613281 17.429688 L 26.410156 17.125 Z M 26.597656 17.449219 " fill-opacity="1" fill-rule="nonzero"/><g fill="#000000" fill-opacity="1"><g transform="translate(44.135389, 28.356003)"><g><path d="M 1.8125 0 L 0.625 0 L 0.625 -6.078125 L 1.8125 -6.078125 Z M 1.8125 0 "/></g></g></g></svg>